<?xml version="1.0" encoding="UTF-8"?>
<svg xmlns="http://www.w3.org/2000/svg" xmlns:xlink="http://www.w3.org/1999/xlink" width="2200" height="2200" viewBox="0 0 2200 2200">
<defs>
<clipPath id="clip-0">
<path clip-rule="nonzero" d="M 240 247 L 1745 247 L 1745 1731 L 240 1731 Z M 240 247 "/>
</clipPath>
<clipPath id="clip-1">
<path clip-rule="nonzero" d="M 933.761719 1730.289062 C 868.210938 1730.289062 803.183594 1701.929688 758.472656 1647.210938 C 755.882812 1644.039062 753.402344 1640.808594 751.011719 1637.539062 L 751.007812 1637.550781 C 713.652344 1586.441406 654.757812 1557.699219 593.753906 1557.699219 C 574.101562 1557.699219 554.230469 1560.679688 534.792969 1566.859375 L 534.796875 1566.851562 C 512.480469 1573.941406 489.378906 1577.441406 466.339844 1577.441406 C 400.8125 1577.429688 335.824219 1549.109375 291.125 1494.410156 C 222.527344 1410.449219 224.316406 1292.050781 289.21875 1210.550781 C 342.34375 1143.710938 345.738281 1050.058594 297.589844 979.550781 L 297.652344 979.558594 C 231.964844 883.621094 249.585938 751.738281 341.269531 676.839844 C 383.28125 642.511719 433.910156 625.800781 484.238281 625.800781 C 535.234375 625.800781 585.921875 642.96875 626.964844 676.359375 C 666.359375 707.710938 711.652344 721.988281 756.050781 721.980469 C 855.839844 721.980469 951.050781 649.828125 964.199219 537.238281 L 964.261719 537.421875 C 973.742188 455.808594 1013.660156 377.648438 1082.308594 321.570312 C 1143.160156 271.851562 1216.488281 247.648438 1289.378906 247.648438 C 1384.320312 247.648438 1478.5 288.730469 1543.25 367.980469 C 1573.089844 404.5 1593.730469 445.53125 1605.449219 488.25 L 1323.308594 681.539062 L 1323.308594 1119.699219 L 1744.46875 1426.539062 C 1729.75 1445.351562 1712.738281 1462.828125 1693.480469 1478.570312 C 1632.660156 1528.261719 1559.390625 1552.421875 1486.550781 1552.421875 C 1446.5 1552.421875 1406.578125 1545.121094 1368.949219 1530.730469 L 1368.96875 1530.78125 C 1346.148438 1522.03125 1322.589844 1517.859375 1299.339844 1517.859375 C 1231.109375 1517.859375 1165.640625 1553.859375 1130.109375 1616.148438 C 1116.730469 1639.640625 1098.929688 1661.128906 1076.738281 1679.25 C 1034.730469 1713.578125 984.09375 1730.289062 933.761719 1730.289062 M 1233 1455.140625 L 1063.058594 1314.808594 L 633.03125 1314.808594 L 442.484375 1455.140625 L 1233 1455.140625 "/>
</clipPath>
<clipPath id="clip-2">
<path clip-rule="nonzero" d="M 933.761719 1730.289062 C 868.210938 1730.289062 803.183594 1701.929688 758.472656 1647.210938 C 755.882812 1644.039062 753.402344 1640.808594 751.011719 1637.539062 L 751.007812 1637.550781 C 713.652344 1586.441406 654.757812 1557.699219 593.753906 1557.699219 C 574.101562 1557.699219 554.230469 1560.679688 534.792969 1566.859375 L 534.796875 1566.851562 C 512.480469 1573.941406 489.378906 1577.441406 466.339844 1577.441406 C 400.8125 1577.429688 335.824219 1549.109375 291.125 1494.410156 C 222.527344 1410.449219 224.316406 1292.050781 289.21875 1210.550781 C 342.34375 1143.710938 345.738281 1050.058594 297.589844 979.550781 L 297.652344 979.558594 C 231.964844 883.621094 249.585938 751.738281 341.269531 676.839844 C 383.28125 642.511719 433.910156 625.800781 484.238281 625.800781 C 535.234375 625.800781 585.921875 642.96875 626.964844 676.359375 C 666.359375 707.710938 711.652344 721.988281 756.050781 721.980469 C 855.839844 721.980469 951.050781 649.828125 964.199219 537.238281 L 964.261719 537.421875 C 973.742188 455.808594 1013.660156 377.648438 1082.308594 321.570312 C 1143.160156 271.851562 1216.488281 247.648438 1289.378906 247.648438 C 1384.320312 247.648438 1478.5 288.730469 1543.25 367.980469 C 1573.089844 404.5 1593.730469 445.53125 1605.449219 488.25 L 1323.308594 681.539062 L 1323.308594 1119.699219 L 1744.46875 1426.539062 C 1729.75 1445.351562 1712.738281 1462.828125 1693.480469 1478.570312 C 1632.660156 1528.261719 1559.390625 1552.421875 1486.550781 1552.421875 C 1446.5 1552.421875 1406.578125 1545.121094 1368.949219 1530.730469 L 1368.96875 1530.78125 C 1346.148438 1522.03125 1322.589844 1517.859375 1299.339844 1517.859375 C 1231.109375 1517.859375 1165.640625 1553.859375 1130.109375 1616.148438 C 1116.730469 1639.640625 1098.929688 1661.128906 1076.738281 1679.25 C 1034.730469 1713.578125 984.09375 1730.289062 933.761719 1730.289062 M 1233 1455.140625 L 1063.058594 1314.808594 L 633.03125 1314.808594 L 442.484375 1455.140625 L 1233 1455.140625 "/>
</clipPath>
<linearGradient id="linear-pattern-0" gradientUnits="userSpaceOnUse" x1="-0.0155202" y1="0" x2="1.066833" y2="0" gradientTransform="matrix(0, 1369.83, -1369.83, 0, 1026.96, 268.91)">
<stop offset="0" stop-color="rgb(58.430481%, 60.391235%, 90.194702%)" stop-opacity="1"/>
<stop offset="0.0625" stop-color="rgb(58.338928%, 60.308838%, 90.184021%)" stop-opacity="1"/>
<stop offset="0.125" stop-color="rgb(58.126831%, 60.121155%, 90.161133%)" stop-opacity="1"/>
<stop offset="0.1875" stop-color="rgb(57.888794%, 59.909058%, 90.135193%)" stop-opacity="1"/>
<stop offset="0.25" stop-color="rgb(57.649231%, 59.69696%, 90.107727%)" stop-opacity="1"/>
<stop offset="0.3125" stop-color="rgb(57.411194%, 59.484863%, 90.081787%)" stop-opacity="1"/>
<stop offset="0.375" stop-color="rgb(57.171631%, 59.272766%, 90.054321%)" stop-opacity="1"/>
<stop offset="0.4375" stop-color="rgb(56.933594%, 59.060669%, 90.028381%)" stop-opacity="1"/>
<stop offset="0.5" stop-color="rgb(56.694031%, 58.847046%, 90.002441%)" stop-opacity="1"/>
<stop offset="0.5625" stop-color="rgb(56.455994%, 58.634949%, 89.974976%)" stop-opacity="1"/>
<stop offset="0.625" stop-color="rgb(56.216431%, 58.422852%, 89.949036%)" stop-opacity="1"/>
<stop offset="0.6875" stop-color="rgb(55.978394%, 58.210754%, 89.923096%)" stop-opacity="1"/>
<stop offset="0.75" stop-color="rgb(55.738831%, 57.998657%, 89.89563%)" stop-opacity="1"/>
<stop offset="0.8125" stop-color="rgb(55.500793%, 57.78656%, 89.86969%)" stop-opacity="1"/>
<stop offset="0.875" stop-color="rgb(55.26123%, 57.574463%, 89.842224%)" stop-opacity="1"/>
<stop offset="1" stop-color="rgb(55.021667%, 57.36084%, 89.816284%)" stop-opacity="1"/>
</linearGradient>
</defs>
<rect x="-220" y="-220" width="2640" height="2640" fill="rgb(54.881287%, 57.226562%, 89.84375%)" fill-opacity="1"/>
<g clip-path="url(#clip-0)">
<g clip-path="url(#clip-1)">
<g clip-path="url(#clip-2)">
<path fill-rule="nonzero" fill="url(#linear-pattern-0)" d="M 1744.46875 247.648438 L 222.527344 247.648438 L 222.527344 1730.289062 L 1744.46875 1730.289062 Z M 1744.46875 247.648438 "/>
</g>
</g>
</g>
<path fill-rule="nonzero" fill="rgb(16.479492%, 9.812927%, 40.795898%)" fill-opacity="1" d="M 564.109375 1297.738281 L 512.226562 1110.769531 L 459.847656 1190.421875 L 529.355469 1339.199219 L 728.730469 1353.21875 L 731.171875 1336.761719 L 564.109375 1297.738281 "/>
<path fill-rule="nonzero" fill="rgb(28.24707%, 19.213867%, 57.617188%)" fill-opacity="1" d="M 441.195312 995.339844 L 442.949219 1039.71875 C 443.6875 1058.441406 453.355469 1075.671875 468.949219 1086.058594 L 471.378906 1087.679688 L 481.257812 1015.871094 L 441.195312 995.339844 "/>
<path fill-rule="nonzero" fill="rgb(100%, 100%, 100%)" fill-opacity="1" d="M 514.890625 1110.761719 L 507.976562 1327.730469 L 506.769531 1365.488281 L 506.058594 1387.21875 L 504.519531 1436.21875 L 357.015625 1436.21875 L 358.773438 1385.570312 L 360.199219 1343.429688 L 361.570312 1301.78125 L 363 1258.699219 L 365.578125 1183.46875 C 365.851562 1175.789062 367.828125 1168.429688 371.230469 1161.851562 C 371.394531 1161.460938 371.613281 1161.128906 371.832031 1160.75 C 372.4375 1159.539062 373.148438 1158.390625 373.863281 1157.289062 L 374.027344 1157.070312 C 377.980469 1151.089844 383.246094 1145.878906 389.503906 1141.980469 L 451.238281 1103.289062 L 461.226562 1089.960938 L 514.890625 1110.761719 "/>
<path fill-rule="nonzero" fill="rgb(85.15625%, 80.46875%, 100%)" fill-opacity="1" d="M 492.3125 1364 L 416.25 1359.621094 L 413.507812 1352.308594 L 373.863281 1157.289062 C 373.148438 1158.390625 372.4375 1159.539062 371.832031 1160.75 C 371.613281 1161.128906 371.394531 1161.460938 371.230469 1161.851562 C 367.828125 1168.429688 365.851562 1175.789062 365.578125 1183.46875 L 363 1258.699219 L 361.570312 1301.78125 L 360.199219 1343.429688 L 358.773438 1385.570312 L 357.015625 1436.21875 L 392.632812 1436.21875 L 392.632812 1387.21875 L 392.65625 1387.171875 L 392.65625 1387.21875 L 492.3125 1364 "/>
<path fill-rule="nonzero" fill="rgb(16.479492%, 9.812927%, 40.795898%)" fill-opacity="1" d="M 688.351562 1585.859375 L 846.8125 1932.660156 L 869.984375 1925.339844 L 742.054688 1482.761719 L 688.351562 1585.859375 "/>
<path fill-rule="nonzero" fill="rgb(28.24707%, 19.213867%, 57.617188%)" fill-opacity="1" d="M 570.113281 1943.460938 C 569.699219 1933.738281 575.050781 1926.800781 575.980469 1925.519531 L 589.511719 1925.570312 C 589.511719 1925.570312 606.632812 1935.101562 612.320312 1938.191406 C 614.597656 1937.851562 616.867188 1937.46875 619.128906 1937.058594 L 619.136719 1937.121094 C 619.339844 1937.078125 619.527344 1937 619.742188 1937 C 621.574219 1937.011719 623.050781 1938.5 623.046875 1940.328125 C 623.039062 1942.160156 621.550781 1943.628906 619.722656 1943.628906 L 619.660156 1943.621094 L 619.660156 1943.628906 C 617.289062 1943.578125 614.914062 1943.570312 612.542969 1943.601562 L 612.542969 1943.589844 L 612.496094 1943.601562 L 612.3125 1943.570312 L 612.3125 1943.601562 L 570.113281 1943.460938 "/>
<path fill-rule="nonzero" fill="rgb(16.479492%, 9.812927%, 40.795898%)" fill-opacity="1" d="M 843.878906 1943.460938 C 843.464844 1933.738281 848.8125 1926.800781 849.742188 1925.519531 L 863.273438 1925.570312 C 863.273438 1925.570312 880.398438 1935.101562 886.085938 1938.191406 C 888.359375 1937.851562 890.632812 1937.46875 892.894531 1937.058594 L 892.898438 1937.121094 C 893.105469 1937.078125 893.292969 1937 893.507812 1937 C 895.335938 1937.011719 896.816406 1938.5 896.808594 1940.328125 C 896.804688 1942.160156 895.316406 1943.628906 893.484375 1943.628906 L 893.425781 1943.621094 L 893.425781 1943.628906 C 891.054688 1943.578125 888.679688 1943.570312 886.308594 1943.601562 L 886.304688 1943.589844 L 886.257812 1943.601562 L 886.078125 1943.570312 L 886.078125 1943.601562 L 843.878906 1943.460938 "/>
<path fill-rule="nonzero" fill="rgb(28.24707%, 19.213867%, 57.617188%)" fill-opacity="1" d="M 531.425781 971.070312 L 553.625 1015.300781 C 555.867188 1019.769531 556.039062 1024.988281 554.097656 1029.601562 C 552.15625 1034.199219 548.300781 1037.71875 543.539062 1039.238281 L 536.390625 1041.511719 L 531.425781 971.070312 "/>
<path fill-rule="nonzero" fill="rgb(100%, 38.035583%, 37.646484%)" fill-opacity="1" d="M 520.632812 1058.421875 L 518.238281 1080.53125 L 515.828125 1102.121094 L 514.894531 1110.761719 L 461.226562 1089.949219 L 467.363281 1061.800781 L 461.238281 1004.980469 L 515.769531 995.398438 L 520.632812 1058.421875 "/>
<path fill-rule="nonzero" fill="rgb(60.742188%, 27.830505%, 43.530273%)" fill-opacity="1" d="M 514.894531 1110.761719 L 524.882812 1139.621094 L 513.90625 1147.75 Z M 514.894531 1110.761719 "/>
<path fill-rule="nonzero" fill="rgb(68.164062%, 14.501953%, 23.925781%)" fill-opacity="1" d="M 518.238281 1080.53125 L 515.828125 1102.121094 C 494.4375 1091.761719 505.402344 1067.339844 505.402344 1067.339844 L 518.238281 1080.53125 "/>
<path fill-rule="nonzero" fill="rgb(28.24707%, 19.213867%, 57.617188%)" fill-opacity="1" d="M 746.03125 1507.128906 L 595.203125 1930.011719 L 571.789062 1924.789062 L 640.707031 1556.328125 L 424.289062 1556.328125 C 367.648438 1558.261719 345.90625 1519.53125 351.449219 1474.25 C 352.035156 1469.460938 353.128906 1465.03125 353.777344 1460.898438 C 356.078125 1446.289062 357.027344 1436.230469 357.027344 1436.230469 L 504.542969 1436.230469 L 720.960938 1468.550781 C 729.914062 1469.328125 738.03125 1474.199219 742.925781 1481.730469 C 747.816406 1489.269531 748.976562 1498.660156 746.03125 1507.128906 "/>
<path fill-rule="nonzero" fill="rgb(100%, 38.035583%, 37.646484%)" fill-opacity="1" d="M 533.945312 991.769531 C 533.945312 991.769531 542.585938 1005.53125 541.621094 1017.488281 L 542.054688 1022.671875 L 549.429688 1036.171875 C 549.878906 1037 549.910156 1037.988281 549.511719 1038.851562 C 549.109375 1039.699219 548.328125 1040.308594 547.40625 1040.5 L 544.136719 1041.140625 L 543.929688 1045.070312 L 526.09375 1054.039062 L 509.300781 1046.308594 L 497.890625 1026.371094 L 483.039062 990.761719 L 502.011719 981.859375 L 524.050781 984.210938 L 533.945312 991.769531 "/>
<path fill-rule="nonzero" fill="rgb(28.24707%, 19.213867%, 57.617188%)" fill-opacity="1" d="M 451.113281 976.941406 C 469.84375 956.28125 495.863281 948.980469 521.464844 962.25 C 525.453125 964.339844 528.878906 967.339844 531.425781 971.070312 C 534.742188 975.910156 537.304688 983.03125 533.953125 991.769531 L 499.0625 994.671875 L 485.34375 995.828125 C 485.574219 996.300781 485.878906 996.648438 486.109375 997.121094 C 489.910156 1004.878906 490.140625 1013.390625 487.421875 1020.609375 C 484.070312 1019.878906 480.488281 1020.808594 477.929688 1023.410156 C 475.648438 1025.761719 473.472656 1029.578125 475.207031 1034.859375 C 474.875 1035.070312 474.542969 1035.269531 474.15625 1035.441406 C 467.242188 1038.800781 459.484375 1038.828125 452.628906 1036.089844 C 445.9375 1033.5 440.078125 1028.28125 436.632812 1021.148438 C 431.410156 1010.421875 433.121094 997.601562 440.980469 988.609375 C 444.398438 984.699219 447.683594 980.730469 451.113281 976.941406 "/>
<path fill-rule="nonzero" fill="rgb(28.24707%, 19.213867%, 57.617188%)" fill-opacity="1" d="M 452.628906 1036.089844 C 452.261719 1035.648438 451.851562 1035.21875 451.441406 1034.789062 L 445.898438 1029.039062 C 438.421875 1016.75 443.851562 1008.671875 446.984375 1005.449219 C 460.671875 991.378906 481.402344 987.351562 499.0625 994.671875 C 501.4375 995.640625 503.710938 996.820312 505.933594 998.199219 C 506.890625 998.800781 507.71875 999.480469 508.441406 1000.308594 C 514.167969 1006.761719 509.386719 1013.421875 509.386719 1013.421875 C 503.195312 1024.261719 506.105469 1033.628906 506.105469 1033.628906 C 506.148438 1033.851562 506.230469 1034.019531 506.261719 1034.199219 C 506.316406 1034.46875 506.40625 1034.691406 506.449219 1034.910156 C 507.554688 1038.878906 510.160156 1042.21875 513.761719 1044.210938 C 517.3125 1046.210938 521.507812 1046.730469 525.472656 1045.628906 L 544.144531 1041.140625 L 546.3125 1055.199219 L 550.148438 1068.351562 C 551.144531 1074.839844 548.726562 1081.449219 543.710938 1085.738281 C 532.289062 1095.511719 506.636719 1087.949219 504.320312 1072.601562 L 499.507812 1045.710938 C 499.453125 1045.441406 499.464844 1045.25 499.410156 1044.980469 L 497.046875 1031.53125 C 496.671875 1029.390625 495.820312 1027.359375 494.527344 1025.621094 C 493.796875 1024.628906 492.894531 1023.601562 491.789062 1022.730469 C 490.503906 1021.628906 488.96875 1020.910156 487.421875 1020.609375 C 484.070312 1019.878906 480.488281 1020.808594 477.929688 1023.410156 C 475.648438 1025.761719 473.472656 1029.578125 475.207031 1034.859375 C 475.703125 1036.441406 476.535156 1038.089844 477.773438 1039.890625 C 477.773438 1039.890625 479.101562 1041.910156 481.238281 1044.28125 L 467.363281 1061.800781 C 462.496094 1056.351562 460.007812 1050.691406 457.402344 1043.871094 C 456.386719 1041.210938 455.046875 1038.820312 452.628906 1036.089844 "/>
<path fill-rule="nonzero" fill="rgb(16.479492%, 9.812927%, 40.795898%)" fill-opacity="1" d="M 452.769531 1436.230469 L 353.777344 1460.898438 C 356.078125 1446.289062 357.027344 1436.230469 357.027344 1436.230469 L 452.769531 1436.230469 "/>
<path fill-rule="nonzero" fill="rgb(16.479492%, 9.812927%, 40.795898%)" fill-opacity="1" d="M 637.875 1560.121094 C 637.21875 1560.121094 636.582031 1559.789062 636.214844 1559.191406 C 635.648438 1558.269531 635.9375 1557.070312 636.851562 1556.511719 L 656.089844 1544.679688 C 657.007812 1544.121094 658.207031 1544.410156 658.769531 1545.320312 C 659.332031 1546.238281 659.046875 1547.441406 658.132812 1548 L 638.894531 1559.828125 C 638.574219 1560.019531 638.222656 1560.121094 637.875 1560.121094 "/>
<path fill-rule="nonzero" fill="rgb(100%, 100%, 100%)" fill-opacity="1" d="M 531.425781 1565.269531 C 531.425781 1569.191406 528.246094 1572.371094 524.324219 1572.371094 L 358.761719 1572.371094 C 354.839844 1572.371094 351.660156 1569.191406 351.660156 1565.269531 C 351.660156 1561.351562 354.839844 1558.171875 358.761719 1558.171875 L 524.324219 1558.171875 C 528.246094 1558.171875 531.425781 1561.351562 531.425781 1565.269531 "/>
<path fill-rule="nonzero" fill="rgb(100%, 100%, 100%)" fill-opacity="1" d="M 394.878906 1565.621094 L 328.867188 1943.648438 L 324.695312 1943.648438 L 390.820312 1564.898438 L 394.878906 1565.621094 "/>
<path fill-rule="nonzero" fill="rgb(100%, 100%, 100%)" fill-opacity="1" d="M 561.699219 1943.648438 L 557.53125 1943.648438 L 491.515625 1565.621094 L 495.574219 1564.898438 L 561.699219 1943.648438 "/>
<path fill-rule="nonzero" fill="rgb(60.742188%, 27.830505%, 43.530273%)" fill-opacity="1" d="M 521.316406 1139 L 535.847656 1417.230469 L 491.011719 1417.230469 L 514.527344 1141.378906 L 521.316406 1139 "/>
<path fill-rule="nonzero" fill="rgb(54.881287%, 57.226562%, 89.84375%)" fill-opacity="1" d="M 1323.308594 681.539062 L 1323.308594 1119.699219 L 1850.011719 1503.441406 L 1850.011719 320.710938 L 1323.308594 681.539062 "/>
<path fill-rule="nonzero" fill="rgb(100%, 100%, 100%)" fill-opacity="1" d="M 1850.011719 320.710938 L 1323.308594 681.539062 L 1323.308594 1119.699219 L 1850.011719 1503.441406 L 1850.011719 320.710938 M 1844.808594 330.558594 L 1844.808594 1493.230469 L 1328.5 1117.058594 L 1328.5 684.28125 L 1844.808594 330.558594 "/>
<path fill-rule="nonzero" fill="rgb(100%, 100%, 100%)" fill-opacity="1" d="M 1850.011719 417.300781 L 1850.011719 320.710938 L 1323.308594 681.539062 L 1323.308594 728.199219 L 1850.011719 417.300781 "/>
<path fill-rule="nonzero" fill="rgb(85.15625%, 80.46875%, 100%)" fill-opacity="1" d="M 1063.058594 1314.808594 L 1233 1455.140625 L 442.484375 1455.140625 L 633.03125 1314.808594 L 1063.058594 1314.808594 "/>
<path fill-rule="nonzero" fill="rgb(28.24707%, 19.213867%, 57.617188%)" fill-opacity="1" d="M 719.65625 1343.75 C 720.96875 1343.75 722.191406 1344.421875 722.894531 1345.519531 C 723.601562 1346.628906 723.691406 1348.019531 723.136719 1349.210938 L 688.304688 1423.980469 C 687.675781 1425.328125 686.316406 1426.199219 684.824219 1426.199219 L 569.925781 1426.199219 C 568.289062 1426.199219 566.835938 1425.160156 566.296875 1423.621094 C 565.761719 1422.070312 566.257812 1420.359375 567.542969 1419.339844 L 663.085938 1343.75 L 719.65625 1343.75 "/>
<path fill-rule="nonzero" fill="rgb(28.24707%, 19.213867%, 57.617188%)" fill-opacity="1" d="M 661.660156 1324.710938 C 661.152344 1327.449219 661.890625 1330.269531 663.675781 1332.421875 C 665.457031 1334.558594 668.101562 1335.800781 670.890625 1335.800781 L 951.785156 1335.800781 C 956.3125 1335.800781 960.191406 1332.570312 961.015625 1328.121094 L 991.535156 1163.308594 C 992.042969 1160.570312 991.304688 1157.738281 989.523438 1155.601562 C 987.738281 1153.460938 985.097656 1152.21875 982.308594 1152.21875 L 701.410156 1152.21875 C 696.886719 1152.21875 693.007812 1155.441406 692.183594 1159.890625 L 661.660156 1324.710938 "/>
<path fill-rule="nonzero" fill="rgb(100%, 100%, 100%)" fill-opacity="1" d="M 811.359375 1242.738281 C 809.269531 1254.03125 816.730469 1263.191406 828.019531 1263.191406 C 839.3125 1263.191406 850.164062 1254.03125 852.253906 1242.738281 C 854.347656 1231.449219 846.886719 1222.289062 835.59375 1222.289062 C 824.300781 1222.289062 813.449219 1231.449219 811.359375 1242.738281 "/>
<path fill-rule="nonzero" fill="rgb(28.24707%, 19.213867%, 57.617188%)" fill-opacity="1" d="M 886.644531 1396.808594 L 757.554688 1396.808594 C 757.554688 1390.738281 762.472656 1385.820312 768.539062 1385.820312 L 875.660156 1385.820312 C 881.726562 1385.820312 886.644531 1390.738281 886.644531 1396.808594 "/>
<path fill-rule="nonzero" fill="rgb(54.881287%, 57.226562%, 89.84375%)" fill-opacity="1" d="M 710.453125 1275.238281 C 710.128906 1276.921875 708.652344 1278.140625 706.941406 1278.140625 L 696.847656 1278.140625 C 695.78125 1278.140625 694.769531 1277.660156 694.089844 1276.828125 C 693.40625 1276.011719 693.132812 1274.929688 693.335938 1273.878906 C 693.660156 1272.191406 695.132812 1270.980469 696.847656 1270.980469 L 706.941406 1270.980469 C 708.007812 1270.980469 709.019531 1271.460938 709.699219 1272.28125 C 710.378906 1273.101562 710.65625 1274.191406 710.453125 1275.238281 "/>
<path fill-rule="nonzero" fill="rgb(54.881287%, 57.226562%, 89.84375%)" fill-opacity="1" d="M 707.105469 1292.488281 C 706.78125 1294.171875 705.308594 1295.390625 703.59375 1295.390625 L 693.5 1295.390625 C 692.433594 1295.390625 691.421875 1294.910156 690.738281 1294.089844 C 690.0625 1293.261719 689.785156 1292.179688 689.988281 1291.128906 C 690.3125 1289.449219 691.785156 1288.230469 693.5 1288.230469 L 703.59375 1288.230469 C 704.660156 1288.230469 705.671875 1288.710938 706.351562 1289.53125 C 707.03125 1290.359375 707.308594 1291.441406 707.105469 1292.488281 "/>
<path fill-rule="nonzero" fill="rgb(54.881287%, 57.226562%, 89.84375%)" fill-opacity="1" d="M 703.757812 1309.738281 C 703.433594 1311.421875 701.960938 1312.640625 700.246094 1312.640625 L 690.152344 1312.640625 C 689.085938 1312.640625 688.074219 1312.160156 687.394531 1311.339844 C 686.714844 1310.511719 686.4375 1309.429688 686.640625 1308.378906 C 686.964844 1306.699219 688.4375 1305.480469 690.152344 1305.480469 L 700.246094 1305.480469 C 701.3125 1305.480469 702.324219 1305.960938 703.003906 1306.78125 C 703.683594 1307.609375 703.960938 1308.691406 703.757812 1309.738281 "/>
<path fill-rule="nonzero" fill="rgb(16.479492%, 9.812927%, 40.795898%)" fill-opacity="1" d="M 774.859375 1293.640625 L 757.554688 1335.800781 L 806.820312 1335.800781 Z M 774.859375 1293.640625 "/>
<path fill-rule="nonzero" fill="rgb(28.24707%, 19.213867%, 57.617188%)" fill-opacity="1" d="M 840.78125 1293.640625 L 774.859375 1293.640625 L 792.089844 1388.398438 L 858.007812 1388.398438 L 840.78125 1293.640625 "/>
<path fill-rule="nonzero" fill="rgb(100%, 100%, 100%)" fill-opacity="1" d="M 442.484375 1455.140625 L 442.484375 1466.53125 L 1233 1466.53125 L 1233 1455.140625 L 442.484375 1455.140625 "/>
<path fill-rule="nonzero" fill="rgb(28.24707%, 19.213867%, 57.617188%)" fill-opacity="1" d="M 970.109375 1854.019531 L 968.320312 1854 L 971.445312 1594.121094 L 973.234375 1594.140625 L 970.109375 1854.019531 "/>
<path fill-rule="nonzero" fill="rgb(28.24707%, 19.213867%, 57.617188%)" fill-opacity="1" d="M 969.078125 1786.808594 C 963.738281 1698.050781 932.289062 1646.898438 931.972656 1646.398438 L 933.488281 1645.449219 C 933.808594 1645.960938 965.496094 1697.460938 970.863281 1786.699219 L 969.078125 1786.808594 "/>
<path fill-rule="nonzero" fill="rgb(28.24707%, 19.213867%, 57.617188%)" fill-opacity="1" d="M 971.875 1702.738281 L 970.101562 1702.519531 C 970.148438 1702.109375 975.601562 1661.199219 1008.949219 1627.859375 L 1010.210938 1629.121094 C 977.316406 1662.019531 971.925781 1702.328125 971.875 1702.738281 "/>
<path fill-rule="nonzero" fill="rgb(28.24707%, 19.213867%, 57.617188%)" fill-opacity="1" d="M 984.796875 1591.53125 C 984.796875 1598.46875 979.164062 1604.109375 972.21875 1604.109375 C 965.269531 1604.109375 959.640625 1598.46875 959.640625 1591.53125 C 959.640625 1584.578125 965.269531 1578.949219 972.21875 1578.949219 C 979.164062 1578.949219 984.796875 1584.578125 984.796875 1591.53125 "/>
<path fill-rule="nonzero" fill="rgb(28.24707%, 19.213867%, 57.617188%)" fill-opacity="1" d="M 939.355469 1643.53125 C 939.355469 1647.671875 936 1651.019531 931.859375 1651.019531 C 927.722656 1651.019531 924.367188 1647.671875 924.367188 1643.53125 C 924.367188 1639.390625 927.722656 1636.039062 931.859375 1636.039062 C 936 1636.039062 939.355469 1639.390625 939.355469 1643.53125 "/>
<path fill-rule="nonzero" fill="rgb(28.24707%, 19.213867%, 57.617188%)" fill-opacity="1" d="M 1016.03125 1632.089844 C 1016.03125 1637.320312 1011.789062 1641.558594 1006.570312 1641.558594 C 1001.339844 1641.558594 997.105469 1637.320312 997.105469 1632.089844 C 997.105469 1626.871094 1001.339844 1622.628906 1006.570312 1622.628906 C 1011.789062 1622.628906 1016.03125 1626.871094 1016.03125 1632.089844 "/>
<path fill-rule="nonzero" fill="rgb(28.24707%, 19.213867%, 57.617188%)" fill-opacity="1" d="M 978.648438 1765.800781 C 971.054688 1757.75 971.503906 1743.460938 971.503906 1743.460938 C 971.949219 1726.929688 984.457031 1723.351562 984.457031 1723.351562 C 991.160156 1693.421875 1016.179688 1691.191406 1016.179688 1691.191406 C 1016.179688 1691.191406 990.429688 1726.488281 978.648438 1765.800781 "/>
<path fill-rule="nonzero" fill="rgb(28.24707%, 19.213867%, 57.617188%)" fill-opacity="1" d="M 952.386719 1744.578125 C 958.375 1729.421875 949.9375 1710.109375 949.9375 1710.109375 C 940.273438 1687.738281 921.207031 1689.699219 921.207031 1689.699219 C 895.652344 1652.421875 860.203125 1663.058594 860.203125 1663.058594 C 860.203125 1663.058594 918.566406 1700.871094 952.386719 1744.578125 "/>
<path fill-rule="nonzero" fill="rgb(28.24707%, 19.213867%, 57.617188%)" fill-opacity="1" d="M 982.628906 1810.550781 C 982.628906 1810.550781 976.777344 1790.058594 992.578125 1769 C 992.578125 1769 1007.699219 1744.699219 1048.820312 1747.449219 C 1053.351562 1747.75 1057.828125 1748.890625 1061.941406 1750.820312 C 1065.179688 1752.339844 1068.699219 1754.480469 1071 1757.289062 C 1071 1757.289062 1049.730469 1755.261719 1023.078125 1770.449219 C 1009.78125 1778.03125 998.195312 1788.488281 989.367188 1801 L 982.628906 1810.550781 "/>
<path fill-rule="nonzero" fill="rgb(28.24707%, 19.213867%, 57.617188%)" fill-opacity="1" d="M 951.378906 1801.71875 C 951.378906 1801.71875 955.683594 1786.660156 944.0625 1771.171875 C 944.0625 1771.171875 932.945312 1753.300781 902.707031 1755.320312 C 899.378906 1755.539062 896.082031 1756.378906 893.0625 1757.800781 C 890.679688 1758.921875 888.085938 1760.488281 886.394531 1762.558594 C 886.394531 1762.558594 902.039062 1761.070312 921.632812 1772.238281 C 931.414062 1777.808594 939.933594 1785.5 946.425781 1794.699219 L 951.378906 1801.71875 "/>
<path fill-rule="nonzero" fill="rgb(28.24707%, 19.213867%, 57.617188%)" fill-opacity="1" d="M 962.082031 1860.800781 C 961.507812 1822.820312 946.515625 1790.660156 946.363281 1790.339844 L 947.910156 1789.609375 C 948.066406 1789.929688 963.214844 1822.410156 963.796875 1860.78125 L 962.082031 1860.800781 "/>
<path fill-rule="nonzero" fill="rgb(28.24707%, 19.213867%, 57.617188%)" fill-opacity="1" d="M 968.480469 1858.46875 L 966.765625 1858.429688 C 969.074219 1775.730469 949.125 1738.269531 948.921875 1737.910156 L 950.425781 1737.078125 C 950.636719 1737.46875 955.605469 1746.679688 960.359375 1766.308594 C 964.730469 1784.378906 969.691406 1815.039062 968.480469 1858.46875 "/>
<path fill-rule="nonzero" fill="rgb(28.24707%, 19.213867%, 57.617188%)" fill-opacity="1" d="M 969.496094 1858.851562 C 968.722656 1801.660156 977.621094 1762.660156 977.714844 1762.269531 L 979.382812 1762.660156 C 979.292969 1763.050781 970.441406 1801.859375 971.210938 1858.828125 L 969.496094 1858.851562 "/>
<path fill-rule="nonzero" fill="rgb(28.24707%, 19.213867%, 57.617188%)" fill-opacity="1" d="M 976.28125 1859.300781 L 974.570312 1859.160156 C 977.664062 1820.488281 985.847656 1795.988281 985.929688 1795.75 L 987.550781 1796.300781 C 987.472656 1796.539062 979.355469 1820.851562 976.28125 1859.300781 "/>
<path fill-rule="nonzero" fill="rgb(100%, 100%, 100%)" fill-opacity="1" d="M 1012.578125 1866.929688 L 1012.128906 1870.539062 L 1009.929688 1888.25 L 1003.898438 1936.890625 C 1003.429688 1940.738281 1000.148438 1943.628906 996.277344 1943.628906 L 947.105469 1943.628906 C 943.226562 1943.628906 939.953125 1940.738281 939.476562 1936.890625 L 930.800781 1866.929688 L 1012.578125 1866.929688 "/>
<path fill-rule="nonzero" fill="rgb(85.15625%, 80.46875%, 100%)" fill-opacity="1" d="M 1012.128906 1870.539062 L 1009.929688 1888.25 L 965.675781 1874.148438 Z M 1012.128906 1870.539062 "/>
<path fill-rule="nonzero" fill="rgb(100%, 100%, 100%)" fill-opacity="1" d="M 924.460938 1852.339844 L 926.996094 1875.800781 L 1016.378906 1875.800781 L 1018.921875 1852.339844 L 924.460938 1852.339844 "/>
<path fill-rule="nonzero" fill="rgb(92.576599%, 86.326599%, 49.414062%)" fill-opacity="1" d="M 1681.699219 959.808594 C 1681.699219 1032.050781 1623.140625 1090.609375 1550.890625 1090.609375 C 1478.648438 1090.609375 1420.089844 1032.050781 1420.089844 959.808594 C 1420.089844 887.558594 1478.648438 829 1550.890625 829 C 1623.140625 829 1681.699219 887.558594 1681.699219 959.808594 "/>
<path fill-rule="nonzero" fill="rgb(92.576599%, 86.326599%, 49.414062%)" fill-opacity="1" d="M 1652.890625 959.808594 C 1652.890625 1016.140625 1607.21875 1061.800781 1550.890625 1061.800781 C 1494.558594 1061.800781 1448.898438 1016.140625 1448.898438 959.808594 C 1448.898438 903.480469 1494.558594 857.808594 1550.890625 857.808594 C 1607.21875 857.808594 1652.890625 903.480469 1652.890625 959.808594 "/>
<path fill-rule="nonzero" fill="rgb(85.15625%, 63.476562%, 7.054138%)" fill-opacity="1" d="M 1448.910156 961.25 C 1448.910156 961.238281 1448.910156 961.230469 1448.910156 961.230469 C 1448.910156 961.230469 1448.910156 961.238281 1448.910156 961.25 M 1448.910156 961.078125 C 1448.910156 961.070312 1448.910156 961.050781 1448.910156 961.03125 C 1448.910156 961.050781 1448.910156 961.070312 1448.910156 961.078125 M 1448.910156 960.910156 C 1448.910156 960.890625 1448.910156 960.871094 1448.910156 960.851562 C 1448.910156 960.871094 1448.910156 960.890625 1448.910156 960.910156 M 1448.898438 960.75 C 1448.898438 960.71875 1448.898438 960.699219 1448.898438 960.671875 C 1448.898438 960.691406 1448.898438 960.71875 1448.898438 960.75 M 1448.898438 960.578125 C 1448.898438 960.550781 1448.898438 960.519531 1448.898438 960.5 C 1448.898438 960.519531 1448.898438 960.550781 1448.898438 960.578125 M 1448.898438 960.410156 C 1448.898438 960.378906 1448.898438 960.351562 1448.898438 960.320312 C 1448.898438 960.351562 1448.898438 960.378906 1448.898438 960.410156 M 1448.898438 960.230469 C 1448.898438 960.210938 1448.898438 960.179688 1448.898438 960.148438 C 1448.898438 960.179688 1448.898438 960.210938 1448.898438 960.230469 M 1448.898438 960.050781 C 1448.898438 960.03125 1448.898438 960 1448.898438 959.980469 C 1448.898438 960 1448.898438 960.03125 1448.898438 960.050781 M 1448.898438 959.828125 C 1448.898438 959.820312 1448.898438 959.820312 1448.898438 959.808594 C 1448.898438 959.808594 1448.898438 959.820312 1448.898438 959.828125 M 1466.578125 902.398438 C 1484.941406 875.480469 1515.851562 857.808594 1550.890625 857.808594 C 1553.679688 857.808594 1556.441406 857.921875 1559.171875 858.140625 C 1556.441406 857.929688 1553.679688 857.808594 1550.890625 857.808594 C 1515.851562 857.808594 1484.941406 875.480469 1466.578125 902.398438 "/>
<path fill-rule="nonzero" fill="rgb(85.15625%, 63.476562%, 7.054138%)" fill-opacity="1" d="M 1483.921875 1036.601562 C 1462.839844 1018.199219 1449.328125 991.328125 1448.910156 961.25 C 1448.910156 961.238281 1448.910156 961.230469 1448.910156 961.230469 C 1448.910156 961.179688 1448.910156 961.128906 1448.910156 961.078125 C 1448.910156 961.070312 1448.910156 961.050781 1448.910156 961.03125 C 1448.910156 960.988281 1448.910156 960.949219 1448.910156 960.910156 C 1448.910156 960.890625 1448.910156 960.871094 1448.910156 960.851562 C 1448.910156 960.808594 1448.898438 960.78125 1448.898438 960.75 C 1448.898438 960.71875 1448.898438 960.691406 1448.898438 960.671875 C 1448.898438 960.640625 1448.898438 960.609375 1448.898438 960.578125 C 1448.898438 960.550781 1448.898438 960.519531 1448.898438 960.5 C 1448.898438 960.46875 1448.898438 960.441406 1448.898438 960.410156 C 1448.898438 960.378906 1448.898438 960.351562 1448.898438 960.320312 C 1448.898438 960.289062 1448.898438 960.261719 1448.898438 960.230469 C 1448.898438 960.210938 1448.898438 960.179688 1448.898438 960.148438 C 1448.898438 960.121094 1448.898438 960.078125 1448.898438 960.050781 C 1448.898438 960.03125 1448.898438 960 1448.898438 959.980469 C 1448.898438 959.929688 1448.898438 959.878906 1448.898438 959.828125 C 1448.898438 959.820312 1448.898438 959.808594 1448.898438 959.808594 C 1448.898438 938.519531 1455.421875 918.75 1466.578125 902.398438 C 1484.941406 875.480469 1515.851562 857.808594 1550.890625 857.808594 C 1553.679688 857.808594 1556.441406 857.929688 1559.171875 858.140625 C 1586.46875 860.351562 1610.691406 873.359375 1627.691406 892.828125 C 1609.761719 877.179688 1586.378906 867.640625 1560.71875 867.640625 C 1504.390625 867.640625 1458.730469 913.308594 1458.730469 969.628906 C 1458.730469 995.289062 1468.28125 1018.679688 1483.921875 1036.601562 "/>
<path fill-rule="nonzero" fill="rgb(85.15625%, 63.476562%, 7.054138%)" fill-opacity="1" d="M 1566.089844 1032.839844 L 1535.039062 1032.710938 L 1535.121094 1021.21875 C 1511.480469 1017.089844 1496.988281 1003.070312 1497.128906 981.859375 L 1535.191406 981.761719 C 1535.128906 990.128906 1542.449219 994.191406 1550.839844 994.191406 C 1550.859375 994.191406 1550.878906 994.191406 1550.898438 994.191406 C 1558.628906 994.171875 1566.039062 990.550781 1566.078125 984.140625 C 1566.128906 976.769531 1555.710938 974.671875 1542.988281 971.988281 C 1523.660156 967.820312 1498.980469 962.691406 1499.148438 935.960938 C 1499.28125 916.621094 1512.941406 904.160156 1535.898438 900.570312 L 1535.988281 886.769531 L 1567.039062 886.898438 L 1566.949219 900.941406 C 1588.679688 905.148438 1600.738281 918.289062 1600.621094 937.679688 L 1563.621094 937.769531 C 1563.660156 930.371094 1557.398438 926.910156 1549.78125 926.910156 C 1549.761719 926.910156 1549.738281 926.910156 1549.71875 926.910156 C 1543.148438 926.921875 1536.820312 929.429688 1536.789062 934.910156 C 1536.738281 941.578125 1546.820312 943.761719 1559.421875 946.5 C 1579.089844 950.910156 1604.828125 956.621094 1604.660156 983.421875 C 1604.519531 1004.601562 1589.078125 1017.398438 1566.171875 1021.25 L 1566.089844 1032.839844 "/>
<path fill-rule="nonzero" fill="rgb(85.15625%, 80.46875%, 100%)" fill-opacity="1" d="M 1140.230469 955.550781 L 1155.078125 1015.761719 L 1056.511719 1040.070312 L 1041.660156 979.859375 L 1140.230469 955.550781 "/>
<path fill-rule="nonzero" fill="rgb(16.479492%, 9.812927%, 40.795898%)" fill-opacity="1" d="M 1140.230469 955.550781 L 1142.820312 966.058594 L 1100.289062 995.898438 L 1133.289062 957.261719 L 1140.230469 955.550781 "/>
<path fill-rule="nonzero" fill="rgb(100%, 100%, 100%)" fill-opacity="1" d="M 1041.671875 979.851562 L 1095.808594 997 C 1097.390625 997.5 1099.121094 997.070312 1100.28125 995.898438 L 1140.238281 955.539062 L 1041.671875 979.851562 "/>
<path fill-rule="nonzero" fill="rgb(100%, 100%, 100%)" fill-opacity="1" d="M 936.726562 1322.488281 C 936.726562 1326.070312 939.632812 1328.980469 943.21875 1328.980469 C 946.800781 1328.980469 949.707031 1326.070312 949.707031 1322.488281 C 949.707031 1318.898438 946.800781 1316 943.21875 1316 C 939.632812 1316 936.726562 1318.898438 936.726562 1322.488281 "/>
<path fill-rule="nonzero" fill="rgb(100%, 100%, 100%)" fill-opacity="1" d="M 932.3125 1316.128906 C 932.3125 1318.921875 934.578125 1321.191406 937.375 1321.191406 C 940.171875 1321.191406 942.4375 1318.921875 942.4375 1316.128906 C 942.4375 1313.328125 940.171875 1311.058594 937.375 1311.058594 C 934.578125 1311.058594 932.3125 1313.328125 932.3125 1316.128906 "/>
<path fill-rule="nonzero" fill="rgb(100%, 100%, 100%)" fill-opacity="1" d="M 923.488281 1299.121094 C 923.488281 1307.578125 930.34375 1314.441406 938.804688 1314.441406 C 947.261719 1314.441406 954.121094 1307.578125 954.121094 1299.121094 C 954.121094 1290.660156 947.261719 1283.808594 938.804688 1283.808594 C 930.34375 1283.808594 923.488281 1290.660156 923.488281 1299.121094 "/>
<path fill-rule="nonzero" fill="rgb(100%, 100%, 100%)" fill-opacity="1" d="M 954.378906 1281.859375 C 954.378906 1284.511719 956.53125 1286.660156 959.183594 1286.660156 C 961.835938 1286.660156 963.984375 1284.511719 963.984375 1281.859375 C 963.984375 1279.210938 961.835938 1277.058594 959.183594 1277.058594 C 956.53125 1277.058594 954.378906 1279.210938 954.378906 1281.859375 "/>
<path fill-rule="nonzero" fill="rgb(100%, 100%, 100%)" fill-opacity="1" d="M 924.027344 1323.640625 C 924.027344 1325.289062 925.359375 1326.621094 927.003906 1326.621094 C 928.644531 1326.621094 929.976562 1325.289062 929.976562 1323.640625 C 929.976562 1322 928.644531 1320.671875 927.003906 1320.671875 C 925.359375 1320.671875 924.027344 1322 924.027344 1323.640625 "/>
<path fill-rule="nonzero" fill="rgb(100%, 100%, 100%)" fill-opacity="1" d="M 921.929688 1280.171875 C 921.929688 1284.539062 925.476562 1288.089844 929.847656 1288.089844 C 934.21875 1288.089844 937.765625 1284.539062 937.765625 1280.171875 C 937.765625 1275.800781 934.21875 1272.25 929.847656 1272.25 C 925.476562 1272.25 921.929688 1275.800781 921.929688 1280.171875 "/>
<path fill-rule="nonzero" fill="rgb(97.264099%, 97.65625%, 98.4375%)" fill-opacity="1" d="M 942.957031 1425.910156 C 942.957031 1426.070312 943.085938 1426.199219 943.246094 1426.199219 L 980.667969 1426.199219 C 980.890625 1426.199219 981.074219 1426.019531 981.074219 1425.789062 L 981.074219 1421.71875 L 942.957031 1421.71875 L 942.957031 1425.910156 "/>
<path fill-rule="nonzero" fill="rgb(97.264099%, 97.65625%, 98.4375%)" fill-opacity="1" d="M 932.855469 1348.019531 L 932.976562 1348.988281 L 935.777344 1371.648438 L 939.636719 1402.988281 L 942.222656 1423.980469 C 942.273438 1424.28125 942.523438 1424.519531 942.828125 1424.519531 L 981.195312 1424.519531 C 981.515625 1424.519531 981.765625 1424.28125 981.800781 1423.980469 L 984.402344 1402.988281 L 988.261719 1371.648438 L 991.0625 1348.988281 L 991.183594 1348.019531 L 932.855469 1348.019531 "/>
<path fill-rule="nonzero" fill="rgb(76.171875%, 71.679688%, 89.451599%)" fill-opacity="1" d="M 935.777344 1371.648438 L 932.976562 1348.988281 L 935.777344 1371.648438 "/>
<path fill-rule="nonzero" fill="rgb(100%, 38.035583%, 37.646484%)" fill-opacity="1" d="M 935.777344 1371.648438 L 939.636719 1402.988281 L 984.402344 1402.988281 L 988.261719 1371.648438 L 935.777344 1371.648438 "/>
<path fill-rule="nonzero" fill="rgb(100%, 38.035583%, 37.646484%)" fill-opacity="1" d="M 945.886719 1375.71875 C 945.886719 1384.628906 953.109375 1391.851562 962.019531 1391.851562 C 970.929688 1391.851562 978.152344 1384.628906 978.152344 1375.71875 C 978.152344 1366.808594 970.929688 1359.589844 962.019531 1359.589844 C 953.109375 1359.589844 945.886719 1366.808594 945.886719 1375.71875 "/>
<path fill-rule="nonzero" fill="rgb(100%, 100%, 100%)" fill-opacity="1" d="M 951.632812 1375.71875 C 951.632812 1381.460938 956.28125 1386.109375 962.019531 1386.109375 C 967.757812 1386.109375 972.40625 1381.460938 972.40625 1375.71875 C 972.40625 1369.980469 967.757812 1365.328125 962.019531 1365.328125 C 956.28125 1365.328125 951.632812 1369.980469 951.632812 1375.71875 "/>
<path fill-rule="nonzero" fill="rgb(16.479492%, 9.812927%, 40.795898%)" fill-opacity="1" d="M 935.082031 1337.230469 L 935.585938 1334.929688 C 935.667969 1334.511719 936.054688 1334.199219 936.492188 1334.199219 L 938.265625 1334.199219 C 938.402344 1333.851562 938.738281 1333.609375 939.140625 1333.609375 L 943.894531 1333.609375 C 944.292969 1333.609375 944.628906 1333.851562 944.769531 1334.199219 L 948.289062 1334.199219 C 949.851562 1334.199219 951.394531 1334.371094 952.921875 1334.710938 L 955.609375 1335.308594 C 956.96875 1335.609375 958.359375 1335.769531 959.753906 1335.769531 L 988.21875 1335.769531 C 988.6875 1335.769531 989.074219 1336.101562 989.144531 1336.550781 L 989.359375 1337.980469 L 990.285156 1343.960938 L 933.738281 1343.441406 L 935.082031 1337.230469 "/>
<path fill-rule="nonzero" fill="rgb(16.479492%, 9.812927%, 40.795898%)" fill-opacity="1" d="M 930.078125 1348.269531 L 930.078125 1348.988281 L 993.960938 1348.988281 L 993.960938 1348.269531 C 993.960938 1347.921875 993.707031 1347.628906 993.371094 1347.558594 L 993.371094 1343.519531 C 993.371094 1343.019531 992.96875 1342.601562 992.449219 1342.601562 L 931.574219 1342.601562 C 931.070312 1342.601562 930.648438 1343.019531 930.648438 1343.519531 L 930.648438 1347.558594 C 930.3125 1347.628906 930.078125 1347.921875 930.078125 1348.269531 "/>
<path fill-rule="nonzero" fill="rgb(54.881287%, 57.226562%, 89.84375%)" fill-opacity="1" d="M 1556.789062 1149.671875 L 1556.789062 751.800781 L 1746.25 912.070312 L 1746.25 1182.769531 L 1556.789062 1149.671875 "/>
<path fill-rule="nonzero" fill="rgb(100%, 87.5%, 48.242188%)" fill-opacity="1" d="M 969.34375 857.621094 L 973.289062 851.691406 C 975.15625 848.890625 974.398438 845.109375 971.597656 843.238281 L 947.773438 827.371094 C 946.644531 826.621094 945.300781 826.269531 943.949219 826.371094 L 924.566406 827.789062 L 951.019531 861.289062 L 969.34375 857.621094 "/>
<path fill-rule="nonzero" fill="rgb(100%, 100%, 100%)" fill-opacity="1" d="M 936.105469 891.511719 L 852.605469 835.878906 L 882.875 790.441406 L 964.523438 844.828125 C 965.546875 845.511719 965.820312 846.890625 965.140625 847.910156 L 936.105469 891.511719 "/>
<path fill-rule="nonzero" fill="rgb(100%, 87.5%, 48.242188%)" fill-opacity="1" d="M 900.875 812.011719 L 894.726562 793.578125 C 894.296875 792.289062 893.449219 791.191406 892.324219 790.441406 L 868.5 774.570312 C 865.699219 772.699219 861.917969 773.460938 860.050781 776.261719 L 856.101562 782.191406 L 807.78125 854.730469 C 805.914062 857.53125 806.671875 861.308594 809.472656 863.179688 L 912.570312 931.851562 C 915.371094 933.71875 919.15625 932.960938 921.019531 930.160156 L 969.34375 857.621094 L 900.875 812.011719 "/>
<path fill-rule="nonzero" fill="rgb(85.15625%, 80.46875%, 100%)" fill-opacity="1" d="M 920.023438 1105.621094 L 868.214844 1094.230469 C 865.046875 1093.53125 863.042969 1090.398438 863.742188 1087.230469 L 870.492188 1056.519531 C 871.1875 1053.359375 874.320312 1051.351562 877.488281 1052.050781 L 929.296875 1063.441406 C 932.464844 1064.140625 934.464844 1067.269531 933.769531 1070.441406 L 927.019531 1101.148438 C 926.320312 1104.308594 923.191406 1106.320312 920.023438 1105.621094 "/>
<path fill-rule="nonzero" fill="rgb(28.24707%, 19.213867%, 57.617188%)" fill-opacity="1" d="M 930.941406 1083.289062 L 867.664062 1069.378906 L 869.546875 1060.820312 L 932.824219 1074.730469 L 930.941406 1083.289062 "/>
<path fill-rule="nonzero" fill="rgb(100%, 100%, 100%)" fill-opacity="1" d="M 920.425781 1101.671875 L 902.027344 1097.628906 L 902.878906 1093.761719 L 921.273438 1097.800781 L 920.425781 1101.671875 "/>
<path fill-rule="nonzero" fill="rgb(92.576599%, 85.9375%, 49.804688%)" fill-opacity="1" d="M 715.207031 1036.199219 L 689.894531 1004.558594 L 678.140625 1009.191406 L 676.710938 1005.558594 L 691.140625 999.878906 L 716.453125 1031.519531 L 758.753906 1014.871094 L 760.179688 1018.5 L 715.207031 1036.199219 "/>
<path fill-rule="nonzero" fill="rgb(92.576599%, 85.9375%, 49.804688%)" fill-opacity="1" d="M 709.992188 1026.5 L 708.5625 1022.871094 L 759.835938 1002.691406 L 761.261719 1006.308594 L 709.992188 1026.5 "/>
<path fill-rule="nonzero" fill="rgb(92.576599%, 85.9375%, 49.804688%)" fill-opacity="1" d="M 701.695312 1017.160156 L 700.269531 1013.539062 L 758.085938 990.769531 L 759.515625 994.398438 L 701.695312 1017.160156 "/>
<path fill-rule="nonzero" fill="rgb(92.576599%, 85.9375%, 49.804688%)" fill-opacity="1" d="M 730.800781 1044.160156 C 730.121094 1044.160156 729.433594 1044.28125 728.769531 1044.539062 C 725.914062 1045.671875 724.507812 1048.898438 725.632812 1051.761719 C 726.175781 1053.140625 727.226562 1054.230469 728.585938 1054.820312 C 729.949219 1055.410156 731.460938 1055.441406 732.84375 1054.890625 C 735.695312 1053.769531 737.101562 1050.53125 735.980469 1047.679688 C 735.117188 1045.5 733.019531 1044.160156 730.800781 1044.160156 Z M 730.804688 1059.179688 C 729.523438 1059.179688 728.242188 1058.921875 727.035156 1058.390625 C 724.71875 1057.378906 722.933594 1055.53125 722.007812 1053.179688 C 720.097656 1048.328125 722.492188 1042.828125 727.34375 1040.921875 C 732.191406 1039.011719 737.691406 1041.398438 739.605469 1046.25 C 741.511719 1051.109375 739.121094 1056.609375 734.269531 1058.519531 C 733.148438 1058.960938 731.972656 1059.179688 730.804688 1059.179688 "/>
<path fill-rule="nonzero" fill="rgb(92.576599%, 85.9375%, 49.804688%)" fill-opacity="1" d="M 756.988281 1033.851562 C 756.300781 1033.851562 755.609375 1033.980469 754.949219 1034.238281 C 753.566406 1034.78125 752.480469 1035.828125 751.890625 1037.191406 C 751.296875 1038.550781 751.269531 1040.070312 751.8125 1041.449219 C 752.359375 1042.828125 753.40625 1043.921875 754.769531 1044.511719 C 756.132812 1045.101562 757.640625 1045.128906 759.023438 1044.578125 C 760.40625 1044.039062 761.492188 1042.988281 762.085938 1041.628906 C 762.679688 1040.269531 762.703125 1038.761719 762.160156 1037.371094 C 761.617188 1035.988281 760.566406 1034.898438 759.203125 1034.308594 C 758.492188 1034 757.742188 1033.851562 756.988281 1033.851562 Z M 756.984375 1048.871094 C 755.703125 1048.871094 754.425781 1048.609375 753.214844 1048.078125 C 750.898438 1047.070312 749.113281 1045.21875 748.1875 1042.871094 C 747.265625 1040.519531 747.308594 1037.960938 748.316406 1035.640625 C 749.324219 1033.320312 751.171875 1031.539062 753.523438 1030.609375 C 755.871094 1029.691406 758.441406 1029.730469 760.757812 1030.738281 C 763.074219 1031.75 764.859375 1033.601562 765.785156 1035.949219 C 766.710938 1038.300781 766.664062 1040.871094 765.65625 1043.179688 C 764.648438 1045.5 762.800781 1047.28125 760.449219 1048.210938 C 759.328125 1048.648438 758.15625 1048.871094 756.984375 1048.871094 "/>
<path fill-rule="nonzero" fill="rgb(92.576599%, 85.9375%, 49.804688%)" fill-opacity="1" d="M 1164.488281 1117.761719 C 1161.039062 1117.761719 1157.660156 1118.738281 1154.679688 1120.640625 C 1150.570312 1123.269531 1147.730469 1127.351562 1146.679688 1132.109375 C 1145.628906 1136.878906 1146.5 1141.769531 1149.128906 1145.890625 C 1151.761719 1150 1155.839844 1152.839844 1160.601562 1153.890625 C 1165.371094 1154.941406 1170.261719 1154.070312 1174.378906 1151.429688 C 1178.488281 1148.800781 1181.328125 1144.730469 1182.378906 1139.960938 C 1183.429688 1135.191406 1182.558594 1130.300781 1179.929688 1126.191406 C 1177.300781 1122.078125 1173.21875 1119.238281 1168.449219 1118.191406 C 1167.140625 1117.898438 1165.808594 1117.761719 1164.488281 1117.761719 Z M 1164.570312 1156.921875 C 1163.070312 1156.921875 1161.550781 1156.75 1160.050781 1156.421875 C 1154.601562 1155.230469 1149.949219 1151.980469 1146.949219 1147.289062 C 1143.941406 1142.589844 1142.949219 1137 1144.140625 1131.558594 C 1146.621094 1120.320312 1157.769531 1113.179688 1169.011719 1115.648438 C 1180.25 1118.121094 1187.390625 1129.28125 1184.921875 1140.519531 C 1183.71875 1145.960938 1180.46875 1150.621094 1175.78125 1153.621094 C 1172.378906 1155.800781 1168.511719 1156.921875 1164.570312 1156.921875 "/>
<path fill-rule="nonzero" fill="rgb(54.881287%, 57.226562%, 89.84375%)" fill-opacity="1" d="M 1164.488281 1166.640625 L 1151.730469 1163.828125 L 1157.078125 1139.511719 L 1169.839844 1142.308594 L 1164.488281 1166.640625 "/>
<path fill-rule="nonzero" fill="rgb(92.576599%, 85.9375%, 49.804688%)" fill-opacity="1" d="M 1153.28125 1162.839844 L 1163.5 1165.089844 L 1168.289062 1143.300781 L 1158.070312 1141.050781 Z M 1165.480469 1168.179688 L 1150.191406 1164.820312 L 1156.089844 1137.960938 L 1171.378906 1141.320312 L 1165.480469 1168.179688 "/>
<path fill-rule="nonzero" fill="rgb(54.881287%, 57.226562%, 89.84375%)" fill-opacity="1" d="M 1169.53125 1149.660156 L 1154.28125 1146.300781 C 1153.398438 1146.109375 1152.851562 1145.25 1153.039062 1144.378906 L 1154.890625 1135.988281 C 1155.078125 1135.109375 1155.941406 1134.558594 1156.808594 1134.75 L 1172.070312 1138.109375 C 1172.941406 1138.300781 1173.488281 1139.160156 1173.300781 1140.03125 L 1171.460938 1148.429688 C 1171.269531 1149.300781 1170.398438 1149.851562 1169.53125 1149.660156 "/>
<path fill-rule="nonzero" fill="rgb(92.576599%, 85.9375%, 49.804688%)" fill-opacity="1" d="M 1156.460938 1136.011719 L 1156.300781 1136.070312 C 1156.25 1136.101562 1156.179688 1136.160156 1156.160156 1136.261719 L 1154.308594 1144.660156 C 1154.289062 1144.761719 1154.320312 1144.851562 1154.359375 1144.898438 C 1154.390625 1144.949219 1154.449219 1145.011719 1154.550781 1145.03125 L 1169.808594 1148.390625 C 1169.988281 1148.429688 1170.148438 1148.320312 1170.191406 1148.148438 L 1172.039062 1139.75 C 1172.058594 1139.648438 1172.019531 1139.570312 1171.988281 1139.519531 C 1171.960938 1139.460938 1171.898438 1139.398438 1171.789062 1139.378906 L 1156.539062 1136.019531 Z M 1169.878906 1150.988281 C 1169.671875 1150.988281 1169.460938 1150.96875 1169.25 1150.921875 L 1154 1147.570312 C 1153.238281 1147.398438 1152.589844 1146.949219 1152.171875 1146.289062 C 1151.75 1145.640625 1151.609375 1144.859375 1151.78125 1144.101562 L 1153.621094 1135.710938 C 1153.789062 1134.949219 1154.238281 1134.300781 1154.898438 1133.878906 C 1155.558594 1133.460938 1156.328125 1133.320312 1157.089844 1133.488281 L 1172.351562 1136.839844 C 1173.109375 1137.011719 1173.761719 1137.460938 1174.179688 1138.121094 C 1174.601562 1138.769531 1174.738281 1139.550781 1174.570312 1140.308594 L 1172.730469 1148.699219 C 1172.429688 1150.058594 1171.21875 1150.988281 1169.878906 1150.988281 "/>
<path fill-rule="nonzero" fill="rgb(54.881287%, 57.226562%, 89.84375%)" fill-opacity="1" d="M 1202.558594 1227.660156 C 1195.828125 1258.308594 1165.519531 1277.691406 1134.871094 1270.960938 C 1104.21875 1264.21875 1084.839844 1233.910156 1091.570312 1203.261719 C 1098.308594 1172.609375 1128.621094 1153.230469 1159.269531 1159.96875 C 1189.921875 1166.710938 1209.300781 1197.011719 1202.558594 1227.660156 "/>
<path fill-rule="nonzero" fill="rgb(92.576599%, 85.9375%, 49.804688%)" fill-opacity="1" d="M 1147.058594 1159.929688 C 1121.558594 1159.929688 1098.539062 1177.640625 1092.839844 1203.539062 C 1089.660156 1218.019531 1092.300781 1232.878906 1100.289062 1245.378906 C 1108.289062 1257.871094 1120.660156 1266.5 1135.148438 1269.691406 C 1149.628906 1272.871094 1164.488281 1270.230469 1176.980469 1262.238281 C 1189.480469 1254.25 1198.109375 1241.871094 1201.289062 1227.378906 C 1207.871094 1197.480469 1188.890625 1167.808594 1158.988281 1161.238281 C 1154.988281 1160.359375 1150.988281 1159.929688 1147.058594 1159.929688 Z M 1147.179688 1273.601562 C 1143 1273.601562 1138.78125 1273.140625 1134.589844 1272.21875 C 1119.429688 1268.890625 1106.46875 1259.851562 1098.109375 1246.78125 C 1089.738281 1233.699219 1086.96875 1218.140625 1090.308594 1202.980469 C 1097.191406 1171.679688 1128.261719 1151.820312 1159.550781 1158.699219 C 1190.851562 1165.578125 1210.710938 1196.640625 1203.828125 1227.941406 C 1200.5 1243.101562 1191.460938 1256.058594 1178.378906 1264.421875 C 1168.921875 1270.480469 1158.160156 1273.601562 1147.179688 1273.601562 "/>
<path fill-rule="nonzero" fill="rgb(92.576599%, 85.9375%, 49.804688%)" fill-opacity="1" d="M 1194.238281 1225.828125 C 1188.511719 1251.878906 1162.75 1268.359375 1136.699219 1262.628906 C 1110.648438 1256.910156 1094.171875 1231.140625 1099.898438 1205.089844 C 1105.628906 1179.039062 1131.390625 1162.558594 1157.441406 1168.289062 C 1183.488281 1174.019531 1199.96875 1199.78125 1194.238281 1225.828125 "/>
<path fill-rule="nonzero" fill="rgb(54.881287%, 57.226562%, 89.84375%)" fill-opacity="1" d="M 1179.839844 1195.171875 C 1177.160156 1190.828125 1173.710938 1187.121094 1169.589844 1184.148438 L 1171.109375 1182.050781 C 1175.5 1185.21875 1179.179688 1189.171875 1182.050781 1193.800781 L 1179.839844 1195.171875 "/>
<path fill-rule="nonzero" fill="rgb(54.881287%, 57.226562%, 89.84375%)" fill-opacity="1" d="M 1167.519531 1182.761719 C 1166.921875 1182.390625 1166.308594 1182.03125 1165.691406 1181.679688 L 1166.941406 1179.410156 C 1167.609375 1179.78125 1168.261719 1180.160156 1168.898438 1180.558594 L 1167.519531 1182.761719 "/>
<path fill-rule="nonzero" fill="rgb(54.881287%, 57.226562%, 89.84375%)" fill-opacity="1" d="M 1163.640625 1180.628906 C 1161 1179.378906 1158.21875 1178.421875 1155.351562 1177.789062 L 1155.910156 1175.261719 C 1158.96875 1175.929688 1161.941406 1176.949219 1164.75 1178.28125 L 1163.640625 1180.628906 "/>
<path fill-rule="nonzero" fill="rgb(54.881287%, 57.226562%, 89.84375%)" fill-opacity="1" d="M 1171.128906 1194.019531 C 1167.738281 1190.199219 1163.441406 1187.21875 1158.699219 1185.390625 L 1159.640625 1182.960938 C 1164.761719 1184.941406 1169.410156 1188.171875 1173.070312 1192.289062 L 1171.128906 1194.019531 "/>
<path fill-rule="nonzero" fill="rgb(54.881287%, 57.226562%, 89.84375%)" fill-opacity="1" d="M 1168.890625 1201.5 C 1167.699219 1199.628906 1166.269531 1197.921875 1164.640625 1196.410156 L 1166.398438 1194.5 C 1168.191406 1196.160156 1169.769531 1198.050781 1171.078125 1200.101562 L 1168.890625 1201.5 "/>
<path fill-rule="nonzero" fill="rgb(54.881287%, 57.226562%, 89.84375%)" fill-opacity="1" d="M 1162.929688 1194.96875 C 1162.328125 1194.5 1161.699219 1194.050781 1161.050781 1193.628906 L 1162.460938 1191.449219 C 1163.160156 1191.910156 1163.859375 1192.398438 1164.53125 1192.921875 L 1162.929688 1194.96875 "/>
<path fill-rule="nonzero" fill="rgb(54.881287%, 57.226562%, 89.84375%)" fill-opacity="1" d="M 1159.25 1192.578125 C 1157.171875 1191.46875 1154.949219 1190.648438 1152.628906 1190.148438 L 1153.191406 1187.609375 C 1155.738281 1188.171875 1158.179688 1189.070312 1160.46875 1190.28125 L 1159.25 1192.578125 "/>
<path fill-rule="nonzero" fill="rgb(92.576599%, 85.9375%, 49.804688%)" fill-opacity="1" d="M 1107.410156 1164.378906 L 1106.011719 1162.199219 L 1116.308594 1155.609375 L 1117.710938 1157.800781 L 1107.410156 1164.378906 "/>
<path fill-rule="nonzero" fill="rgb(92.576599%, 85.9375%, 49.804688%)" fill-opacity="1" d="M 1115.441406 1168 L 1110.910156 1160.921875 L 1113.089844 1159.519531 L 1117.628906 1166.601562 L 1115.441406 1168 "/>
<path fill-rule="nonzero" fill="rgb(92.576599%, 85.9375%, 49.804688%)" fill-opacity="1" d="M 1204.039062 1185.628906 L 1197.449219 1175.328125 L 1199.640625 1173.929688 L 1206.21875 1184.230469 L 1204.039062 1185.628906 "/>
<path fill-rule="nonzero" fill="rgb(92.576599%, 85.9375%, 49.804688%)" fill-opacity="1" d="M 1195.230469 1185.550781 L 1193.828125 1183.359375 L 1200.921875 1178.828125 L 1202.320312 1181.011719 L 1195.230469 1185.550781 "/>
<path fill-rule="nonzero" fill="rgb(54.881287%, 57.226562%, 89.84375%)" fill-opacity="1" d="M 1138.441406 1222.679688 L 1137.039062 1220.488281 L 1180.089844 1192.769531 L 1181.5 1194.949219 L 1138.441406 1222.679688 "/>
<path fill-rule="nonzero" fill="rgb(54.881287%, 57.226562%, 89.84375%)" fill-opacity="1" d="M 1151.179688 1240.660156 L 1132.769531 1236.609375 L 1133.320312 1234.078125 L 1151.738281 1238.128906 L 1151.179688 1240.660156 "/>
<path fill-rule="nonzero" fill="rgb(54.881287%, 57.226562%, 89.84375%)" fill-opacity="1" d="M 1155.539062 1247.578125 L 1125.898438 1241.070312 L 1126.460938 1238.53125 L 1156.101562 1245.050781 L 1155.539062 1247.578125 "/>
<path fill-rule="nonzero" fill="rgb(92.576599%, 85.9375%, 49.804688%)" fill-opacity="1" d="M 1152.78125 1216.808594 C 1152.078125 1219.96875 1148.949219 1221.96875 1145.789062 1221.28125 C 1142.628906 1220.578125 1140.628906 1217.449219 1141.320312 1214.289062 C 1142.019531 1211.128906 1145.148438 1209.128906 1148.308594 1209.820312 C 1151.46875 1210.519531 1153.46875 1213.648438 1152.78125 1216.808594 "/>
<path fill-rule="nonzero" fill="rgb(54.881287%, 57.226562%, 89.84375%)" fill-opacity="1" d="M 1147.039062 1210.980469 C 1146.179688 1210.980469 1145.328125 1211.230469 1144.589844 1211.710938 C 1143.558594 1212.359375 1142.851562 1213.378906 1142.589844 1214.570312 C 1142.050781 1217.03125 1143.609375 1219.46875 1146.070312 1220.011719 C 1148.519531 1220.550781 1150.96875 1218.988281 1151.511719 1216.53125 C 1151.769531 1215.339844 1151.550781 1214.121094 1150.890625 1213.089844 C 1150.238281 1212.058594 1149.21875 1211.351562 1148.03125 1211.089844 C 1147.699219 1211.019531 1147.371094 1210.980469 1147.039062 1210.980469 Z M 1147.050781 1222.710938 C 1146.539062 1222.710938 1146.03125 1222.660156 1145.511719 1222.539062 C 1141.660156 1221.699219 1139.210938 1217.871094 1140.058594 1214.011719 C 1140.46875 1212.140625 1141.578125 1210.550781 1143.191406 1209.519531 C 1144.800781 1208.488281 1146.71875 1208.140625 1148.589844 1208.558594 C 1150.460938 1208.96875 1152.050781 1210.078125 1153.078125 1211.691406 C 1154.109375 1213.300781 1154.449219 1215.21875 1154.039062 1217.089844 C 1153.308594 1220.429688 1150.339844 1222.710938 1147.050781 1222.710938 "/>
<path fill-rule="nonzero" fill="rgb(85.15625%, 80.46875%, 100%)" fill-opacity="1" d="M 1378.699219 818.761719 L 1239.410156 805.679688 C 1234.679688 805.230469 1230.488281 808.710938 1230.039062 813.429688 L 1223.738281 880.488281 C 1223.300781 885.21875 1226.769531 889.410156 1231.5 889.851562 L 1241.46875 890.789062 L 1239.671875 910.011719 L 1255.210938 892.078125 L 1378.699219 903.679688 L 1378.699219 818.761719 "/>
<path fill-rule="nonzero" fill="rgb(24.31488%, 16.479492%, 40.795898%)" fill-opacity="1" d="M 1116.191406 714.859375 L 1114.199219 714.660156 L 1115.878906 697.839844 C 1116.960938 687.128906 1109.109375 677.539062 1098.398438 676.460938 C 1087.679688 675.390625 1078.089844 683.230469 1077.011719 693.949219 L 1075.328125 710.761719 L 1073.339844 710.558594 L 1075.019531 693.75 C 1076.210938 681.941406 1086.78125 673.289062 1098.601562 674.46875 C 1110.410156 675.660156 1119.058594 686.230469 1117.871094 698.039062 L 1116.191406 714.859375 "/>
<path fill-rule="nonzero" fill="rgb(85.15625%, 80.46875%, 100%)" fill-opacity="1" d="M 1058.269531 704.578125 L 1051.53125 771.820312 L 1060.910156 772.761719 L 1067.640625 705.519531 L 1058.269531 704.578125 "/>
<path fill-rule="nonzero" fill="rgb(85.15625%, 80.46875%, 100%)" fill-opacity="1" d="M 1077.019531 706.460938 L 1067.640625 705.519531 L 1060.910156 772.761719 L 1070.28125 773.699219 L 1077.019531 706.460938 "/>
<path fill-rule="nonzero" fill="rgb(100%, 100%, 100%)" fill-opacity="1" d="M 1142.890625 780.980469 L 1070.28125 773.699219 L 1077.019531 706.460938 L 1149.621094 713.730469 L 1142.890625 780.980469 "/>
<path fill-rule="nonzero" fill="rgb(35.693359%, 24.31488%, 59.568787%)" fill-opacity="1" d="M 1051.53125 771.820312 L 1061.839844 763.46875 L 1070.28125 773.699219 Z M 1051.53125 771.820312 "/>
<path fill-rule="nonzero" fill="rgb(24.31488%, 16.479492%, 40.795898%)" fill-opacity="1" d="M 1094.761719 712.710938 C 1094.648438 713.851562 1093.628906 714.679688 1092.488281 714.570312 C 1091.351562 714.449219 1090.511719 713.429688 1090.628906 712.289062 C 1090.738281 711.148438 1091.761719 710.320312 1092.898438 710.429688 C 1094.050781 710.550781 1094.878906 711.558594 1094.761719 712.710938 "/>
<path fill-rule="nonzero" fill="rgb(24.31488%, 16.479492%, 40.795898%)" fill-opacity="1" d="M 1135.621094 716.800781 C 1135.511719 717.941406 1134.488281 718.769531 1133.351562 718.660156 C 1132.210938 718.550781 1131.371094 717.53125 1131.488281 716.390625 C 1131.601562 715.238281 1132.621094 714.410156 1133.761719 714.519531 C 1134.898438 714.640625 1135.738281 715.660156 1135.621094 716.800781 "/>
<path fill-rule="nonzero" fill="rgb(24.31488%, 16.479492%, 40.795898%)" fill-opacity="1" d="M 1134.550781 716.691406 L 1132.558594 716.488281 L 1134.238281 699.679688 C 1135.320312 688.96875 1127.46875 679.378906 1116.761719 678.300781 C 1106.039062 677.230469 1096.449219 685.070312 1095.378906 695.789062 L 1093.691406 712.601562 L 1091.699219 712.398438 L 1093.390625 695.589844 C 1094.570312 683.78125 1105.140625 675.128906 1116.960938 676.308594 C 1128.769531 677.488281 1137.421875 688.070312 1136.230469 699.878906 L 1134.550781 716.691406 "/>
<path fill-rule="nonzero" fill="rgb(100%, 100%, 100%)" fill-opacity="1" d="M 1918.148438 316.359375 C 1918.148438 320.5 1914.789062 323.859375 1910.660156 323.859375 C 1906.519531 323.859375 1903.171875 320.5 1903.171875 316.359375 C 1903.171875 312.230469 1906.519531 308.871094 1910.660156 308.871094 C 1914.789062 308.871094 1918.148438 312.230469 1918.148438 316.359375 "/>
<path fill-rule="nonzero" fill="rgb(100%, 100%, 100%)" fill-opacity="1" d="M 1864.46875 773.78125 L 1864.238281 773.761719 C 1863.441406 773.640625 1862.898438 772.878906 1863.019531 772.078125 L 1909.320312 314.421875 C 1909.429688 313.710938 1910.039062 313.179688 1910.761719 313.179688 L 1910.769531 313.179688 C 1911.480469 313.179688 1912.101562 313.699219 1912.210938 314.410156 L 1959.871094 772.078125 C 1960 772.878906 1959.460938 773.628906 1958.660156 773.761719 C 1957.859375 773.890625 1957.109375 773.351562 1956.980469 772.550781 L 1910.789062 323.859375 L 1865.921875 772.539062 C 1865.800781 773.269531 1865.179688 773.78125 1864.46875 773.78125 "/>
<path fill-rule="nonzero" fill="rgb(100%, 100%, 100%)" fill-opacity="1" d="M 1864.46875 803.628906 C 1864.46875 829.570312 1885.5 850.609375 1911.449219 850.609375 C 1937.390625 850.609375 1958.421875 829.570312 1958.421875 803.628906 L 1958.421875 772.308594 L 1864.46875 772.308594 L 1864.46875 803.628906 "/>
<path fill-rule="nonzero" fill="rgb(100%, 100%, 100%)" fill-opacity="1" d="M 1865.941406 773.78125 L 1865.941406 803.628906 C 1865.941406 828.71875 1886.351562 849.140625 1911.449219 849.140625 C 1936.539062 849.140625 1956.960938 828.71875 1956.960938 803.628906 L 1956.960938 773.78125 Z M 1911.449219 852.070312 C 1884.738281 852.070312 1863 830.339844 1863 803.628906 L 1863 772.308594 C 1863 771.511719 1863.660156 770.851562 1864.46875 770.851562 L 1958.421875 770.851562 C 1959.230469 770.851562 1959.890625 771.511719 1959.890625 772.308594 L 1959.890625 803.628906 C 1959.890625 830.339844 1938.160156 852.070312 1911.449219 852.070312 "/>
<path fill-rule="nonzero" fill="rgb(28.24707%, 19.213867%, 57.617188%)" fill-opacity="1" d="M 1913.761719 770.851562 L 1916.910156 770.851562 C 1913.828125 758.46875 1904.449219 738.160156 1876.320312 717.390625 C 1850.449219 698.28125 1814.328125 701.5 1792.308594 724.878906 C 1791.140625 726.121094 1789.96875 727.449219 1788.898438 728.75 C 1787.949219 729.761719 1765.738281 753.960938 1760.828125 801.53125 C 1760.789062 801.738281 1756.941406 823.359375 1762.019531 852.339844 L 1762.589844 855.570312 C 1767.421875 882.851562 1770.609375 900.878906 1745.988281 932.738281 L 1748.308594 934.53125 C 1773.730469 901.640625 1770.269531 882.101562 1765.480469 855.058594 L 1764.910156 851.828125 C 1759.921875 823.398438 1763.679688 802.269531 1763.730469 801.941406 C 1768.550781 755.308594 1790.808594 731 1791.101562 730.691406 C 1792.191406 729.371094 1793.320312 728.089844 1794.449219 726.890625 C 1815.449219 704.589844 1849.898438 701.519531 1874.578125 719.738281 C 1901.238281 739.441406 1910.539062 758.910156 1913.761719 770.851562 "/>
<path fill-rule="nonzero" fill="rgb(28.24707%, 19.213867%, 57.617188%)" fill-opacity="1" d="M 1925.640625 675.808594 C 1917.21875 674.308594 1909.179688 679.929688 1907.679688 688.359375 C 1906.191406 696.78125 1918.878906 713.949219 1918.878906 713.949219 C 1918.878906 713.949219 1936.699219 702.191406 1938.199219 693.769531 C 1939.691406 685.339844 1934.070312 677.300781 1925.640625 675.808594 "/>
<path fill-rule="nonzero" fill="rgb(28.24707%, 19.213867%, 57.617188%)" fill-opacity="1" d="M 1797.238281 887.328125 C 1802.011719 882.058594 1801.601562 873.921875 1796.328125 869.148438 C 1791.058594 864.378906 1773.378906 865.730469 1773.378906 865.730469 C 1773.378906 865.730469 1773.789062 883.460938 1779.058594 888.230469 C 1784.328125 893.011719 1792.46875 892.601562 1797.238281 887.328125 "/>
<path fill-rule="nonzero" fill="rgb(28.24707%, 19.213867%, 57.617188%)" fill-opacity="1" d="M 1803.039062 859.441406 C 1802.359375 853.160156 1796.699219 848.621094 1790.421875 849.308594 C 1784.140625 850 1774.601562 862.558594 1774.601562 862.558594 C 1774.601562 862.558594 1786.628906 872.761719 1792.910156 872.070312 C 1799.199219 871.378906 1803.730469 865.730469 1803.039062 859.441406 "/>
<path fill-rule="nonzero" fill="rgb(28.24707%, 19.213867%, 57.617188%)" fill-opacity="1" d="M 1732.179688 854.351562 C 1736.03125 859.601562 1743.410156 860.75 1748.660156 856.898438 C 1753.921875 853.058594 1755.96875 836.949219 1755.96875 836.949219 C 1755.96875 836.949219 1740 834.03125 1734.738281 837.871094 C 1729.488281 841.710938 1728.339844 849.089844 1732.179688 854.351562 "/>
<path fill-rule="nonzero" fill="rgb(28.24707%, 19.213867%, 57.617188%)" fill-opacity="1" d="M 1925.148438 731.691406 C 1920.128906 737.691406 1919.070312 754.328125 1919.070312 754.328125 C 1919.070312 754.328125 1935.261719 750.359375 1940.289062 744.359375 C 1945.308594 738.359375 1946 730.648438 1941.820312 727.160156 C 1937.640625 723.660156 1930.179688 725.691406 1925.148438 731.691406 "/>
<path fill-rule="nonzero" fill="rgb(28.24707%, 19.213867%, 57.617188%)" fill-opacity="1" d="M 1918.238281 729.761719 C 1917.628906 726.03125 1917.53125 725.140625 1915.78125 719.949219 C 1913.710938 713.828125 1908.960938 702.351562 1900.621094 704.121094 C 1892.109375 705.929688 1892.398438 714.710938 1896.78125 720.550781 C 1901.699219 727.121094 1910.609375 729.398438 1918.238281 729.761719 "/>
<path fill-rule="nonzero" fill="rgb(28.24707%, 19.213867%, 57.617188%)" fill-opacity="1" d="M 1925.039062 784.671875 C 1911.789062 751.71875 1918.761719 704.859375 1918.828125 704.390625 L 1921.730469 704.828125 C 1921.660156 705.289062 1914.808594 751.378906 1927.761719 783.578125 L 1925.039062 784.671875 "/>
<path fill-rule="nonzero" fill="rgb(28.24707%, 19.213867%, 57.617188%)" fill-opacity="1" d="M 1836.351562 816.738281 C 1836.351562 816.738281 1850.109375 828.421875 1848.578125 844.871094 C 1848.578125 844.871094 1847.050781 860.789062 1832.78125 859.730469 C 1832.78125 859.730469 1814.429688 859.199219 1815.960938 840.089844 C 1815.960938 840.089844 1818.511719 824.699219 1836.351562 816.738281 "/>
<path fill-rule="nonzero" fill="rgb(28.24707%, 19.213867%, 57.617188%)" fill-opacity="1" d="M 1828.929688 813.828125 C 1828.929688 813.828125 1830.339844 827.578125 1820.910156 838.359375 C 1820.910156 838.359375 1811.761719 848.78125 1804.53125 842.179688 C 1804.53125 842.179688 1794.789062 834.261719 1805.609375 821.640625 C 1805.609375 821.640625 1815.039062 812.019531 1828.929688 813.828125 "/>
<path fill-rule="nonzero" fill="rgb(28.24707%, 19.213867%, 57.617188%)" fill-opacity="1" d="M 1794.550781 773.589844 C 1794.550781 773.589844 1813.710938 779.890625 1819.761719 790.011719 C 1821.558594 793.011719 1821.910156 796.660156 1820.71875 799.941406 C 1819.53125 803.230469 1816.929688 805.820312 1813.628906 806.980469 C 1810.039062 808.238281 1804.78125 808.660156 1800.019531 803.558594 C 1798.179688 801.601562 1797.058594 799.101562 1796.789062 796.429688 L 1794.550781 773.589844 "/>
<path fill-rule="nonzero" fill="rgb(28.24707%, 19.213867%, 57.617188%)" fill-opacity="1" d="M 1747.148438 932.109375 C 1747.148438 932.109375 1757.351562 941.789062 1754.800781 955.550781 C 1754.800781 955.550781 1752.761719 970.328125 1740.019531 968.289062 C 1740.019531 968.289062 1728.289062 967.269531 1730.839844 950.460938 C 1730.839844 950.460938 1731.351562 939.75 1747.148438 932.109375 "/>
<path fill-rule="nonzero" fill="rgb(28.24707%, 19.213867%, 57.617188%)" fill-opacity="1" d="M 1760.921875 912.738281 C 1760.921875 912.738281 1770.851562 915.53125 1777.308594 920.148438 C 1780.429688 922.378906 1782.628906 925.640625 1783.519531 929.371094 C 1784.671875 934.128906 1784.398438 941.109375 1774.851562 944.511719 C 1774.851562 944.511719 1763.289062 948.25 1757.519531 936.011719 C 1757.519531 936.011719 1752.761719 927.859375 1760.921875 912.738281 "/>
<path fill-rule="nonzero" fill="rgb(28.24707%, 19.213867%, 57.617188%)" fill-opacity="1" d="M 1761.929688 892.859375 C 1761.929688 892.859375 1760.371094 906.011719 1753.03125 915.78125 C 1751.980469 917.179688 1750.75 918.421875 1749.371094 919.5 C 1748.230469 920.390625 1746.789062 921.339844 1745.160156 921.980469 C 1740.320312 923.898438 1734.839844 921.738281 1732.601562 917.050781 C 1730.878906 913.460938 1728.738281 905.660156 1738.351562 899.609375 C 1738.601562 899.449219 1738.871094 899.269531 1739.109375 899.101562 C 1740.398438 898.191406 1746.300781 894.628906 1761.929688 892.859375 "/>
<path fill-rule="nonzero" fill="rgb(28.24707%, 19.213867%, 57.617188%)" fill-opacity="1" d="M 1732.710938 883.011719 C 1732.710938 883.011719 1737.570312 894.441406 1734.710938 906.558594 C 1734.019531 909.441406 1732.699219 912.070312 1730.808594 914.351562 C 1727.238281 918.648438 1720.398438 923.578125 1710.289062 916.980469 C 1710.289062 916.980469 1700.019531 910.949219 1705.671875 895.738281 C 1706.5 893.5 1707.921875 891.519531 1709.761719 890.011719 C 1713.429688 887.03125 1720.769531 882.78125 1732.710938 883.011719 "/>
<path fill-rule="nonzero" fill="rgb(28.24707%, 19.213867%, 57.617188%)" fill-opacity="1" d="M 1747.320312 781.058594 C 1747.320312 781.058594 1751.53125 788.171875 1749.761719 796.359375 C 1749.160156 799.148438 1747.621094 801.648438 1745.398438 803.441406 L 1745.328125 803.488281 C 1742.339844 805.871094 1738.191406 806.140625 1734.910156 804.171875 C 1731.640625 802.199219 1729.929688 798.410156 1730.621094 794.648438 C 1730.839844 793.46875 1731.25 792.199219 1731.898438 790.820312 C 1733.511719 787.421875 1736.210938 784.679688 1739.589844 783.011719 C 1741.628906 782.011719 1744.210938 781.191406 1747.320312 781.058594 "/>
<path fill-rule="nonzero" fill="rgb(28.24707%, 19.213867%, 57.617188%)" fill-opacity="1" d="M 1824.628906 703.589844 C 1824.628906 703.589844 1828.179688 693.738281 1825.121094 685.050781 C 1823.628906 680.78125 1820.089844 677.539062 1815.710938 676.421875 C 1814.519531 676.109375 1813.199219 675.929688 1811.820312 676 C 1807.378906 676.199219 1803.460938 678.960938 1801.761719 683.070312 C 1801.53125 683.640625 1801.300781 684.261719 1801.121094 684.921875 C 1799.699219 690.050781 1801.738281 695.511719 1806.160156 698.46875 C 1809.089844 700.421875 1815.839844 704.089844 1824.628906 703.589844 "/>
<path fill-rule="nonzero" fill="rgb(28.24707%, 19.213867%, 57.617188%)" fill-opacity="1" d="M 1845.519531 772.570312 C 1845.519531 772.570312 1835.921875 765.449219 1822.640625 769.238281 C 1820.058594 769.96875 1817.730469 771.269531 1815.738281 773.058594 C 1812.710938 775.78125 1809.628906 780.421875 1810.789062 787.589844 C 1811.078125 789.378906 1811.980469 791.019531 1813.339844 792.21875 C 1815.730469 794.339844 1820.308594 796.390625 1827.859375 792.621094 C 1827.859375 792.621094 1837.710938 788.539062 1845.519531 772.570312 "/>
<path fill-rule="nonzero" fill="rgb(28.24707%, 19.213867%, 57.617188%)" fill-opacity="1" d="M 1809.511719 720.238281 C 1809.511719 720.238281 1821.410156 720.871094 1830.480469 726.378906 C 1835.328125 729.320312 1838.769531 734.121094 1840 739.660156 C 1841.191406 745.03125 1840.71875 752.070312 1832.609375 756.601562 C 1832.609375 756.601562 1831.710938 757.039062 1830.210938 757.488281 C 1825.269531 758.988281 1819.941406 758.398438 1815.441406 755.871094 C 1810.941406 753.351562 1807.671875 749.089844 1806.371094 744.101562 C 1804.800781 738.050781 1803.800781 728.488281 1809.511719 720.238281 "/>
<path fill-rule="nonzero" fill="rgb(28.24707%, 19.213867%, 57.617188%)" fill-opacity="1" d="M 1798.289062 733.75 L 1807.128906 742.921875 C 1807.128906 742.921875 1814.410156 750.378906 1814.109375 757.859375 C 1813.949219 761.949219 1811.011719 765.398438 1807.011719 766.210938 C 1803 767.03125 1798.949219 765.011719 1797.199219 761.308594 C 1796.710938 760.300781 1796.320312 759.101562 1796.039062 757.691406 C 1795.609375 755.558594 1795.539062 753.339844 1795.839844 751.199219 L 1798.289062 733.75 "/>
<path fill-rule="nonzero" fill="rgb(28.24707%, 19.213867%, 57.617188%)" fill-opacity="1" d="M 1774.851562 724.660156 C 1774.851562 724.660156 1774.851562 735.191406 1765.328125 741.648438 C 1765.328125 741.648438 1754.460938 749.121094 1748.339844 738.25 C 1748.339844 738.25 1748.011719 737.628906 1747.640625 736.609375 C 1746.21875 732.601562 1746.851562 728.148438 1749.308594 724.679688 C 1751.78125 721.210938 1755.78125 719.171875 1760.039062 719.199219 C 1763.890625 719.230469 1769.738281 720.160156 1774.851562 724.660156 "/>
<path fill-rule="nonzero" fill="rgb(28.24707%, 19.213867%, 57.617188%)" fill-opacity="1" d="M 1759.558594 734.851562 C 1759.558594 734.851562 1767.03125 738.25 1766.011719 748.109375 C 1766.011719 748.109375 1766.011719 754.558594 1759.21875 754.558594 C 1759.21875 754.558594 1751.058594 755.578125 1751.738281 746.070312 C 1751.738281 746.070312 1751.398438 737.910156 1759.558594 734.851562 "/>
<path fill-rule="nonzero" fill="rgb(28.24707%, 19.213867%, 57.617188%)" fill-opacity="1" d="M 1762.269531 801.789062 C 1762.269531 801.789062 1771.789062 798.390625 1783 803.488281 C 1783 803.488281 1785.140625 804.578125 1787.421875 806.589844 C 1790.929688 809.699219 1792.558594 814.421875 1791.710938 819.03125 C 1790.871094 823.640625 1787.660156 827.460938 1783.28125 829.109375 C 1779.578125 830.511719 1774.671875 830.839844 1769.75 826.601562 C 1769.75 826.601562 1758.539062 817.761719 1762.269531 801.789062 "/>
<path fill-rule="nonzero" fill="rgb(28.24707%, 19.213867%, 57.617188%)" fill-opacity="1" d="M 1771.070312 789.011719 C 1773.261719 788.691406 1775.488281 789.480469 1776.980469 791.128906 C 1779.128906 793.519531 1780.699219 798.238281 1776.210938 807.230469 L 1764.648438 805.191406 L 1762.269531 801.789062 C 1762.269531 801.789062 1761.691406 790.410156 1771.070312 789.011719 "/>
<path fill-rule="nonzero" fill="rgb(28.24707%, 19.213867%, 57.617188%)" fill-opacity="1" d="M 1837.480469 822.519531 L 1834.539062 822.519531 C 1834.539062 821.21875 1834.648438 790.351562 1844.21875 771.890625 C 1854.078125 752.898438 1870.441406 754.058594 1871.128906 754.121094 C 1896.320312 754.820312 1902.609375 777.398438 1902.671875 777.628906 L 1899.828125 778.390625 C 1899.609375 777.539062 1894.011719 757.691406 1870.96875 757.050781 C 1870.28125 756.988281 1855.75 756.039062 1846.828125 773.238281 C 1837.589844 791.058594 1837.480469 822.210938 1837.480469 822.519531 "/>
<path fill-rule="nonzero" fill="rgb(28.24707%, 19.213867%, 57.617188%)" fill-opacity="1" d="M 1846.789062 781.269531 C 1845.390625 771.078125 1848.171875 765.359375 1848.289062 765.121094 L 1850.921875 766.421875 C 1850.890625 766.46875 1848.421875 771.660156 1849.699219 780.859375 L 1846.789062 781.269531 "/>
<path fill-rule="nonzero" fill="rgb(28.24707%, 19.213867%, 57.617188%)" fill-opacity="1" d="M 1820.011719 826.199219 L 1817.351562 824.949219 C 1823 812.949219 1835.398438 809.050781 1835.921875 808.878906 L 1836.78125 811.691406 C 1836.660156 811.71875 1825.089844 815.398438 1820.011719 826.199219 "/>
<path fill-rule="nonzero" fill="rgb(28.24707%, 19.213867%, 57.617188%)" fill-opacity="1" d="M 1730.578125 887.878906 L 1728.730469 885.609375 L 1759.730469 860.398438 C 1767.761719 853.859375 1773.96875 845.339844 1777.671875 835.730469 C 1783.179688 821.421875 1784.878906 805.199219 1786.378906 790.890625 C 1787.078125 784.289062 1787.730469 778.058594 1788.699219 772.980469 C 1792.789062 751.488281 1809.320312 728.511719 1810.019531 727.539062 C 1829.421875 695.308594 1863.78125 709.910156 1864.121094 710.058594 L 1862.949219 712.75 C 1861.628906 712.171875 1830.589844 699.050781 1812.460938 729.148438 C 1812.21875 729.488281 1795.539062 752.691406 1791.578125 773.519531 C 1790.628906 778.488281 1789.988281 784.660156 1789.300781 791.191406 C 1787.78125 805.679688 1786.058594 822.109375 1780.410156 836.78125 C 1776.519531 846.871094 1770.011719 855.820312 1761.578125 862.671875 L 1730.578125 887.878906 "/>
<path fill-rule="nonzero" fill="rgb(28.24707%, 19.213867%, 57.617188%)" fill-opacity="1" d="M 1803.839844 788.96875 C 1803.761719 788.839844 1795.730469 775.839844 1789.839844 770.609375 L 1791.789062 768.421875 C 1798 773.929688 1806 786.878906 1806.339844 787.429688 L 1803.839844 788.96875 "/>
<path fill-rule="nonzero" fill="rgb(28.24707%, 19.213867%, 57.617188%)" fill-opacity="1" d="M 1840.25 708.300781 C 1833.25 708.300781 1819.710938 706.441406 1811.171875 693.351562 L 1813.621094 691.75 C 1824.410156 708.289062 1843.449219 705.261719 1844.261719 705.121094 L 1844.75 708.011719 C 1844.691406 708.019531 1842.96875 708.300781 1840.25 708.300781 "/>
<path fill-rule="nonzero" fill="rgb(28.24707%, 19.213867%, 57.617188%)" fill-opacity="1" d="M 1761.988281 732.03125 L 1759.839844 730.03125 C 1770.769531 718.300781 1792.839844 724.210938 1793.769531 724.46875 L 1792.988281 727.300781 C 1792.78125 727.238281 1771.699219 721.601562 1761.988281 732.03125 "/>
<path fill-rule="nonzero" fill="rgb(28.24707%, 19.213867%, 57.617188%)" fill-opacity="1" d="M 1743.371094 790.550781 L 1740.738281 789.25 C 1750.628906 769.210938 1768.78125 765.421875 1769.550781 765.269531 L 1770.121094 768.148438 C 1769.949219 768.179688 1752.601562 771.851562 1743.371094 790.550781 "/>
<path fill-rule="nonzero" fill="rgb(28.24707%, 19.213867%, 57.617188%)" fill-opacity="1" d="M 1754.371094 900.429688 L 1752.679688 898.03125 L 1766.441406 888.351562 L 1768.128906 890.738281 L 1754.371094 900.429688 "/>
<path fill-rule="nonzero" fill="rgb(28.24707%, 19.213867%, 57.617188%)" fill-opacity="1" d="M 1752.328125 843.121094 L 1750.128906 841.171875 L 1760.328125 829.699219 L 1762.519531 831.648438 L 1752.328125 843.121094 "/>
<path fill-rule="nonzero" fill="rgb(28.24707%, 19.213867%, 57.617188%)" fill-opacity="1" d="M 1780.828125 874.25 C 1780.238281 873.921875 1766.480469 865.820312 1761.03125 845.578125 L 1763.859375 844.820312 C 1768.980469 863.820312 1782.160156 871.628906 1782.289062 871.710938 L 1780.828125 874.25 "/>
<path fill-rule="nonzero" fill="rgb(28.24707%, 19.213867%, 57.617188%)" fill-opacity="1" d="M 1777.578125 864.238281 C 1774.269531 864.238281 1768.78125 863.128906 1765.230469 856.609375 L 1767.808594 855.210938 C 1772.019531 862.960938 1779.351562 861.191406 1779.660156 861.109375 L 1780.398438 863.949219 C 1780.371094 863.960938 1779.261719 864.238281 1777.578125 864.238281 "/>
<path fill-rule="nonzero" fill="rgb(28.24707%, 19.213867%, 57.617188%)" fill-opacity="1" d="M 1817.160156 745.761719 C 1804.828125 731.859375 1808.511719 714.140625 1808.671875 713.390625 L 1811.53125 714.011719 C 1811.5 714.179688 1808.03125 731.050781 1819.351562 743.820312 L 1817.160156 745.761719 "/>
<path fill-rule="nonzero" fill="rgb(28.24707%, 19.213867%, 57.617188%)" fill-opacity="1" d="M 1798.769531 741.171875 C 1794.511719 728.140625 1801.949219 717.148438 1802.269531 716.691406 L 1804.679688 718.351562 C 1804.609375 718.460938 1797.761719 728.640625 1801.558594 740.261719 L 1798.769531 741.171875 "/>
<path fill-rule="nonzero" fill="rgb(28.24707%, 19.213867%, 57.617188%)" fill-opacity="1" d="M 1847.21875 779.710938 C 1847.21875 779.710938 1878.621094 783.289062 1875.21875 803.371094 C 1874.578125 807.128906 1872.261719 810.390625 1868.921875 812.21875 C 1865.761719 813.960938 1861.230469 814.820312 1855.558594 811.621094 C 1852.691406 810 1850.398438 807.519531 1849.019531 804.519531 C 1846.789062 799.660156 1844.128906 790.761719 1847.21875 779.710938 "/>
<path fill-rule="nonzero" fill="rgb(28.24707%, 19.213867%, 57.617188%)" fill-opacity="1" d="M 1854.820312 743.109375 C 1860.289062 747.648438 1868.410156 746.890625 1872.949219 741.421875 C 1877.488281 735.949219 1875.371094 718.339844 1875.371094 718.339844 C 1875.371094 718.339844 1857.671875 719.511719 1853.128906 724.980469 C 1848.589844 730.449219 1849.351562 738.570312 1854.820312 743.109375 "/>
<path fill-rule="nonzero" fill="rgb(100%, 38.035583%, 37.646484%)" fill-opacity="1" d="M 625.652344 1365.730469 L 632.828125 1365.578125 C 632.828125 1365.578125 636.996094 1368.378906 640.304688 1367.238281 L 652.320312 1365.070312 C 652.320312 1365.070312 657.953125 1364.578125 659.605469 1367.28125 L 664.3125 1372.550781 C 664.3125 1372.550781 667.9375 1376.550781 670.855469 1375.289062 C 670.855469 1375.289062 671.820312 1373.320312 670.03125 1371.578125 L 666.355469 1366.980469 L 670.230469 1368.03125 L 675.152344 1373.921875 C 675.152344 1373.921875 677.765625 1376.460938 679.914062 1375.019531 C 679.914062 1375.019531 680.660156 1373.441406 679.089844 1371.308594 L 676.34375 1367.25 L 676.984375 1365.941406 L 680.042969 1369.210938 C 680.042969 1369.210938 685.011719 1374.199219 687.246094 1370.851562 C 687.246094 1370.851562 687.773438 1369.671875 686.089844 1367.679688 L 681.703125 1362.128906 L 677.15625 1356.210938 L 675.34375 1354.21875 L 666.640625 1349.800781 C 666.640625 1349.800781 676.253906 1350.109375 688.324219 1354.121094 C 688.324219 1354.121094 695.355469 1356.660156 695.960938 1353.460938 C 695.960938 1353.460938 697.0625 1351.601562 693.644531 1350 L 678.269531 1344.261719 C 678.269531 1344.261719 663.261719 1339.878906 657.492188 1340.25 L 631.953125 1349.070312 L 628.257812 1349.390625 L 625.652344 1365.730469 "/>
<path fill-rule="nonzero" fill="rgb(100%, 100%, 100%)" fill-opacity="1" d="M 628.703125 1348.039062 L 625.519531 1367.191406 L 506.769531 1365.488281 L 411.425781 1364.078125 C 408.515625 1364.039062 406.050781 1361.921875 405.5625 1359.058594 L 371.832031 1160.75 C 372.492188 1159.488281 373.261719 1158.21875 374.027344 1157.070312 L 445.203125 1157.070312 L 453.433594 1318.570312 L 507.976562 1327.730469 L 628.703125 1348.039062 "/>
<path fill-rule="nonzero" fill="rgb(16.479492%, 9.812927%, 40.795898%)" fill-opacity="1" d="M 475.175781 1323.539062 L 474.957031 1323.519531 L 452.171875 1319.691406 L 444.847656 1178.378906 C 444.84375 1178.148438 444.582031 1161.351562 433.222656 1151.949219 C 426.101562 1146.058594 416.101562 1144.238281 403.507812 1146.53125 C 402.804688 1146.660156 402.125 1146.191406 401.996094 1145.488281 C 401.867188 1144.78125 402.335938 1144.109375 403.039062 1143.980469 C 416.433594 1141.53125 427.152344 1143.550781 434.894531 1149.960938 C 447.183594 1160.148438 447.4375 1177.558594 447.441406 1178.300781 L 454.65625 1317.46875 L 475.386719 1320.960938 C 476.09375 1321.078125 476.570312 1321.75 476.453125 1322.449219 C 476.347656 1323.089844 475.796875 1323.539062 475.175781 1323.539062 "/>
<path fill-rule="nonzero" fill="rgb(16.479492%, 9.812927%, 40.795898%)" fill-opacity="1" d="M 495.933594 1327.03125 L 495.714844 1327.011719 L 485.335938 1325.261719 C 484.628906 1325.148438 484.152344 1324.480469 484.269531 1323.769531 C 484.390625 1323.058594 485.054688 1322.578125 485.765625 1322.699219 L 496.144531 1324.449219 C 496.851562 1324.570312 497.328125 1325.238281 497.210938 1325.941406 C 497.105469 1326.578125 496.554688 1327.03125 495.933594 1327.03125 "/>
<path fill-rule="nonzero" fill="rgb(100%, 100%, 100%)" fill-opacity="1" d="M 1349.761719 858.511719 C 1349.359375 862.75 1352.480469 866.519531 1356.71875 866.921875 C 1360.96875 867.320312 1364.738281 864.199219 1365.140625 859.949219 C 1365.539062 855.699219 1362.421875 851.941406 1358.171875 851.539062 C 1353.921875 851.140625 1350.160156 854.261719 1349.761719 858.511719 "/>
<path fill-rule="nonzero" fill="rgb(100%, 100%, 100%)" fill-opacity="1" d="M 1314.710938 855.210938 C 1314.308594 859.460938 1317.429688 863.21875 1321.679688 863.621094 C 1325.929688 864.019531 1329.691406 860.898438 1330.089844 856.660156 C 1330.488281 852.410156 1327.371094 848.640625 1323.128906 848.25 C 1318.878906 847.851562 1315.109375 850.96875 1314.710938 855.210938 "/>
<path fill-rule="nonzero" fill="rgb(100%, 100%, 100%)" fill-opacity="1" d="M 1279.671875 851.921875 C 1279.269531 856.171875 1282.390625 859.929688 1286.640625 860.328125 C 1290.878906 860.730469 1294.648438 857.609375 1295.050781 853.359375 C 1295.449219 849.121094 1292.328125 845.351562 1288.078125 844.949219 C 1283.828125 844.550781 1280.070312 847.671875 1279.671875 851.921875 "/>
</svg>
